<?xml version="1.0" standalone="no"?>
<!DOCTYPE svg PUBLIC "-//W3C//DTD SVG 1.1//EN" "http://www.w3.org/Graphics/SVG/1.1/DTD/svg11.dtd" >
<svg xmlns="http://www.w3.org/2000/svg">
<metadata>
This is a custom SVG webfont generated by Font Squirrel.
Copyright   : Copyright c 2009 by Floodfonts designed by Felix Braden All rights reserved
Designer    : Felix Braden
Foundry     : Floodfonts designed by Felix Braden
Foundry URL : wwwfloodfontscom
</metadata>
<defs>
<font id="PolarisRegular" horiz-adv-x="1495" >
<font-face units-per-em="2048" ascent="1536" descent="-512" />
<missing-glyph horiz-adv-x="409" />
<glyph unicode=" "  horiz-adv-x="409" />
<glyph unicode="&#x09;" horiz-adv-x="409" />
<glyph unicode="&#xa0;" horiz-adv-x="409" />
<glyph unicode="!" horiz-adv-x="544" d="M143 100q0 72 25 96.5t104 24.5q80 0 104.5 -24.5t24.5 -96.5t-24.5 -97.5t-104.5 -25.5t-104.5 25.5t-24.5 97.5zM170 1376q0 57 19.5 77t82.5 20t83 -19.5t20 -77.5q0 -14 -2 -65t-5 -126t-8.5 -166t-9.5 -183q-10 -217 -24 -486h-105q-16 266 -26 484q-4 92 -9.5 182 t-8.5 165.5t-5 127t-2 67.5z" />
<glyph unicode="&#x22;" horiz-adv-x="765" d="M143 1458h193l-27 -426h-139zM432 1458h191l-27 -426h-137z" />
<glyph unicode="#" d="M123 367l22 147h234l57 393h-233l22 148h234l55 362h162l-55 -362h358l55 362h162l-55 -362h231l-22 -148h-232l-57 -393h231l-22 -147h-232l-53 -367h-162l54 367h-359l-53 -367h-162l53 367h-233zM541 514h358l57 393h-358z" />
<glyph unicode="$" d="M178 2v477h129q4 -84 21.5 -147.5t57.5 -107.5t107.5 -68.5t172.5 -30.5v512q-131 6 -219.5 39t-140.5 86t-74.5 127t-22.5 162q0 176 113.5 278.5t343.5 118.5v160h145v-162q117 -12 190.5 -56t108.5 -92q10 53 23.5 85t19.5 32h107v-461h-119q-10 92 -36 154.5 t-66 100.5t-97 56.5t-131 24.5v-499q152 -8 251 -43t158.5 -90.5t83 -125t23.5 -145.5q0 -78 -21.5 -149.5t-79 -129t-157.5 -95.5t-258 -46v-155l-145 2v153q-111 10 -197 45t-141 107q-8 -53 -20.5 -85t-18.5 -32h-111zM371 1051q0 -55 12 -99.5t44 -78t89 -53t150 -25.5 v495q-152 -10 -223.5 -69t-71.5 -170zM811 125q113 6 179.5 25.5t102 52.5t47 79t11.5 105q0 55 -16.5 99t-55.5 75t-104.5 49.5t-163.5 22.5v-508z" />
<glyph unicode="%" horiz-adv-x="1693" d="M82 1016q0 113 11 190.5t45 125.5t94.5 69.5t158.5 21.5t159.5 -21.5t94.5 -69.5t44 -126t11 -190q0 -111 -11 -188.5t-44 -126t-94.5 -70t-159.5 -21.5t-158.5 21.5t-94.5 70t-45 126t-11 188.5zM193 1016q0 -94 4 -152.5t24.5 -91.5t59 -45t110.5 -12t112 12t59.5 45 t23.5 91.5t4 152.5t-4 153.5t-23.5 92t-59.5 45t-112 12.5t-110.5 -12.5t-59 -45t-24.5 -92t-4 -153.5zM432 0h121l717 1411h-127zM993 391q0 113 11.5 190.5t45 126t94 70t159.5 21.5q98 0 159.5 -21.5t94 -70t44 -126t11.5 -190.5q0 -111 -11.5 -188.5t-44 -125.5 t-94 -69.5t-159.5 -21.5t-159 21.5t-94.5 69.5t-45 125.5t-11.5 188.5zM1104 391q0 -94 4 -152.5t24.5 -91t59.5 -45t111 -12.5t111.5 12.5t59 45t23.5 91t4 152.5t-4 153.5t-23.5 92.5t-59.5 45t-111 12q-72 0 -111 -12t-59.5 -45t-24.5 -92.5t-4 -153.5z" />
<glyph unicode="&#x26;" horiz-adv-x="1458" d="M102 408q0 164 83 244.5t225 103.5q-141 23 -204 105.5t-63 193.5q0 98 36 171.5t98.5 125t150.5 77t193 25.5q104 0 189 -23.5t145.5 -71.5t93 -123t32.5 -177v-244h308v-135h-308v-434q0 -72 17.5 -97.5t79.5 -25.5q61 0 78.5 25.5t17.5 97.5v260h94q6 0 27.5 -66.5 t21.5 -189.5q0 -63 -12 -113.5t-41 -86.5t-76 -54.5t-119 -18.5q-104 0 -157.5 46.5t-63.5 123.5q-20 -39 -47 -70.5t-67.5 -53t-99 -32.5t-144.5 -11q-96 0 -184.5 30.5t-156 86t-107.5 134.5t-40 177zM272 408q0 -68 26 -119t70 -84t105.5 -49.5t134.5 -16.5 q147 0 230.5 68.5t83.5 200.5v264h-279q-115 0 -186.5 -18.5t-112.5 -52.5t-56.5 -83t-15.5 -110zM307 1049q0 -109 79 -171.5t257 -62.5h279v234q0 113 -71 179t-230 66q-80 0 -138.5 -19.5t-97.5 -52t-58.5 -77.5t-19.5 -96z" />
<glyph unicode="'" horiz-adv-x="479" d="M143 1458h193l-27 -426h-139z" />
<glyph unicode="(" horiz-adv-x="673" d="M164 258v651q0 174 29.5 290t82 185.5t124 98t153.5 28.5q10 0 18.5 -1t12.5 -1q6 -2 8 -2v-112q-51 -8 -99.5 -27.5t-86 -71t-61 -143.5t-23.5 -244v-651q0 -152 23.5 -244t61 -143t86 -70.5t99.5 -27.5v-113q-2 -2 -8 -2q-6 -2 -31 -2q-82 0 -153.5 28.5t-124 98.5 t-82 185.5t-29.5 289.5z" />
<glyph unicode=")" horiz-adv-x="673" d="M82 -227q51 8 99 27.5t86 70.5t61.5 143t23.5 244v651q0 152 -23.5 244t-61.5 143.5t-86 70.5t-99 28v112q2 0 8 2q4 0 12.5 1t18.5 1q82 0 153.5 -28.5t124 -98t82 -185.5t29.5 -290v-651q0 -174 -29.5 -289.5t-82 -185.5t-124 -98.5t-153.5 -28.5q-25 0 -31 2 q-6 0 -8 2v113z" />
<glyph unicode="*" horiz-adv-x="1048" d="M143 948l267 119l-267 121l90 149l236 -172l-31 293h174l-30 -293l239 172l84 -149l-268 -119l268 -121l-88 -149l-235 172l28 -295h-174l31 295l-238 -172z" />
<glyph unicode="+" horiz-adv-x="823" d="M82 586v137h244v260h161v-260h254v-137h-254v-262h-161v262h-244z" />
<glyph unicode="," horiz-adv-x="544" d="M147 111q0 33 5.5 54t18.5 33.5t36.5 17.5t62.5 5q76 0 100.5 -22.5t24.5 -87.5q0 -31 -4 -85.5t-25.5 -108.5t-67.5 -93t-132 -39v90q6 0 22.5 5t32 18.5t27.5 35t12 52.5v12q-63 0 -88 22.5t-25 90.5z" />
<glyph unicode="-" horiz-adv-x="600" d="M41 586v137h518v-137h-518z" />
<glyph unicode="." horiz-adv-x="544" d="M143 100q0 72 25 96.5t104 24.5q80 0 104.5 -24.5t24.5 -96.5t-24.5 -97.5t-104.5 -25.5t-104.5 25.5t-24.5 97.5z" />
<glyph unicode="/" horiz-adv-x="708" d="M20 0l486 1458h182l-504 -1458h-164z" />
<glyph unicode="0" d="M193 709q0 199 20 338t79.5 225t169 125t286.5 39q178 0 286.5 -39t168 -125t80 -225.5t20.5 -337.5q0 -201 -20.5 -339.5t-80 -225.5t-168 -125.5t-286.5 -38.5q-176 0 -286 38.5t-169.5 125.5t-79.5 225.5t-20 339.5zM360 709q0 -178 9.5 -290t47.5 -174.5t115.5 -85 t215.5 -22.5q137 0 214.5 22.5t115.5 85t46.5 174t8.5 290.5q0 178 -8.5 288.5t-46.5 173t-115.5 85t-214.5 22.5t-215 -22.5t-116 -85t-47.5 -173t-9.5 -288.5z" />
<glyph unicode="1" horiz-adv-x="864" d="M154 1296q0 6 26.5 26.5t75.5 45.5t119.5 47.5t156.5 32.5v-1311q80 0 130.5 -19.5t50.5 -25.5v-92h-518v92q0 6 49 25.5t133 19.5v1106l-211 -33z" />
<glyph unicode="2" horiz-adv-x="1452" d="M180 0v174q0 141 54.5 230.5t139.5 145.5t186.5 86t195.5 52q90 20 153.5 46t103.5 60.5t58.5 82t18.5 112.5q0 137 -89.5 213t-275.5 76q-109 0 -177.5 -22.5t-108.5 -60.5t-58.5 -86t-24.5 -99h-135q0 10 -1 19t-1 20q0 82 25.5 153.5t86 122.5t157 81t237.5 30 q266 0 396 -116t130 -331q0 -104 -31.5 -180t-92 -130t-146.5 -90t-193 -59q-104 -23 -186 -50t-137 -67t-84 -99.5t-29 -145.5v-27h754q0 129 23.5 198t33.5 69h86v-408h-1069z" />
<glyph unicode="3" horiz-adv-x="1437" d="M160 367q0 10 1 19t1 20h135q6 -51 25.5 -99.5t62.5 -86.5t112.5 -60.5t178.5 -22.5q221 0 316 65.5t95 198.5q0 61 -15 109.5t-56 82.5t-113 52.5t-186 18.5h-119v141h119q178 0 257 62.5t79 168.5q0 51 -17.5 95.5t-59.5 77t-112.5 51t-177.5 18.5q-109 0 -177.5 -22.5 t-108.5 -60.5t-57 -86t-24 -99h-135q0 12 -1 21t-1 20q0 82 25.5 151.5t85 121.5t156 82t237.5 30q266 0 398.5 -100.5t132.5 -293.5q0 -111 -62.5 -192.5t-204.5 -104.5q141 -23 224 -102.5t83 -241.5q0 -193 -148 -307t-433 -114q-141 0 -239.5 29.5t-160 81.5t-89 123 t-27.5 153z" />
<glyph unicode="4" horiz-adv-x="1314" d="M90 369v180l660 874h208v-909h277v-145h-277v-232q78 0 128.5 -19.5t50.5 -27.5v-90h-535v90q0 8 57.5 27.5t141.5 19.5v232h-711zM246 514h555v739z" />
<glyph unicode="5" horiz-adv-x="1415" d="M180 371q0 10 1 19t1 20h135q6 -53 27 -102.5t64 -89.5t114.5 -63.5t182.5 -23.5q117 0 190.5 19.5t115.5 59.5t57 100.5t15 144.5t-15 145.5t-57 102t-116 60t-190 19.5q-178 0 -268.5 -44t-114.5 -138h-123l32 815h957v-155h-811l-19 -449q49 66 143.5 92.5t203.5 26.5 q162 0 268 -36t168.5 -99.5t88 -150.5t25.5 -189q0 -100 -23.5 -187.5t-86 -151t-169 -100t-271.5 -36.5q-141 0 -240.5 29.5t-163 81.5t-92.5 124t-29 156z" />
<glyph unicode="6" horiz-adv-x="1447" d="M180 711q0 199 20.5 337t82 224t173 125t292.5 39q141 0 237 -30t155.5 -82t85 -121.5t25.5 -151.5q0 -10 -1 -19.5t-1 -21.5h-135q-6 51 -24.5 101t-59.5 89t-108.5 62.5t-173.5 23.5q-135 0 -217 -25.5t-127.5 -93t-61.5 -183.5t-18 -296q57 104 154 147.5t270 43.5 q162 0 264 -33t161.5 -91.5t82 -142.5t22.5 -184q0 -98 -20.5 -180t-79 -140.5t-162 -91t-268.5 -32.5q-178 0 -289 38.5t-172.5 124.5t-84 224.5t-22.5 339.5zM369 434q0 -74 16 -129t58 -90t116 -52.5t189 -17.5q117 0 187.5 16.5t108 52.5t50 92t12.5 138 q0 84 -12.5 142.5t-50 94.5t-108.5 52.5t-187 16.5q-117 0 -192 -17.5t-116 -56.5t-56 -98.5t-15 -143.5z" />
<glyph unicode="7" horiz-adv-x="1290" d="M119 901v514h1073v-139l-606 -1274h-193l623 1258h-752q0 -100 -7 -169t-16.5 -111t-19.5 -60.5t-14 -18.5h-88z" />
<glyph unicode="8" d="M168 401q0 80 23.5 140.5t64.5 101.5t99.5 66.5t127.5 35.5q-141 29 -203.5 111t-62.5 186q0 193 132 293.5t399 100.5q266 0 398 -100.5t132 -293.5q0 -104 -62.5 -186t-203.5 -111q70 -10 128 -35.5t99 -66.5t64.5 -101.5t23.5 -140.5q0 -193 -148.5 -307t-430.5 -114 q-283 0 -431.5 114t-148.5 307zM336 401q0 -133 95 -198.5t317 -65.5q221 0 316 65.5t95 198.5q0 61 -16.5 109.5t-59.5 82.5t-116.5 52.5t-188.5 18.5h-61q-115 0 -188.5 -18.5t-116.5 -52.5t-59.5 -82.5t-16.5 -109.5zM383 1036q0 -106 78 -168.5t256 -62.5h61 q178 0 256 62.5t78 168.5q0 51 -17.5 95.5t-58.5 77t-111.5 51t-176.5 18.5t-177 -18.5t-112 -51t-58.5 -77t-17.5 -95.5z" />
<glyph unicode="9" horiz-adv-x="1447" d="M180 991q0 98 20.5 180t79 140.5t162 91.5t269.5 33q178 0 288.5 -38t172 -124t84 -224.5t22.5 -338.5q0 -199 -20.5 -337t-82 -225.5t-173 -126t-291.5 -38.5q-141 0 -237.5 29.5t-156 81.5t-85 123t-25.5 153q0 10 1 19t1 20h135q6 -51 24.5 -101.5t59.5 -89.5 t108.5 -62.5t174.5 -23.5q135 0 217 25.5t127 93t61.5 184.5t18.5 297q-29 -53 -67 -89t-88 -58.5t-116.5 -32.5t-152.5 -10q-162 0 -264.5 32.5t-162 91t-82 141.5t-22.5 183zM352 975q0 -84 12.5 -142.5t50.5 -94.5t108.5 -52t187.5 -16t191.5 17.5t115.5 56t56.5 98 t15.5 143.5q0 76 -16.5 130t-58.5 89t-116 52.5t-188 17.5q-117 0 -187.5 -16.5t-108.5 -51.5t-50.5 -92t-12.5 -139z" />
<glyph unicode=":" horiz-adv-x="544" d="M143 100q0 72 25 96.5t104 24.5q80 0 104.5 -24.5t24.5 -96.5t-24.5 -97.5t-104.5 -25.5t-104.5 25.5t-24.5 97.5zM143 995q0 72 25 96.5t104 24.5q80 0 104.5 -24.5t24.5 -96.5t-24.5 -97.5t-104.5 -25.5t-104.5 25.5t-24.5 97.5z" />
<glyph unicode=";" horiz-adv-x="544" d="M143 995q0 72 25 96.5t104 24.5q80 0 104.5 -24.5t24.5 -96.5t-24.5 -97.5t-104.5 -25.5t-104.5 25.5t-24.5 97.5zM147 111q0 33 5.5 54t18.5 33.5t36.5 17.5t62.5 5q76 0 100.5 -22.5t24.5 -87.5q0 -31 -4 -85.5t-25.5 -108.5t-67.5 -93t-132 -39v90q6 0 23.5 6t34 20.5 t27.5 38t9 58.5q-63 0 -88 22.5t-25 90.5z" />
<glyph unicode="&#x3c;" horiz-adv-x="823" d="M115 664l460 413l105 -110l-354 -305l354 -312l-105 -106z" />
<glyph unicode="=" horiz-adv-x="823" d="M82 430v137h659v-137h-659zM82 741v138h659v-138h-659z" />
<glyph unicode="&#x3e;" horiz-adv-x="823" d="M143 358l355 312l-355 305l105 110l461 -413l-461 -420z" />
<glyph unicode="?" horiz-adv-x="1097" d="M80 1018q-57 248 60.5 361.5t389.5 113.5q154 0 251.5 -35t154.5 -89t78.5 -121.5t21.5 -131.5q0 -68 -17.5 -123t-50 -102t-80.5 -91t-110 -91q-61 -47 -96 -89t-52.5 -84t-25.5 -87.5t-18 -98.5h-105q-8 33 -14 66q-6 29 -10 61.5t-4 63.5q0 61 29.5 108t74.5 87 t98.5 77t98.5 79t74.5 93t29.5 119q0 45 -11 87t-47 74.5t-100.5 52t-169.5 19.5q-113 0 -176 -25.5t-95 -69.5t-40 -102.5t-8 -121.5h-131zM403 100q0 72 25 96.5t104 24.5q80 0 105 -24.5t25 -96.5t-25 -97.5t-105 -25.5t-104.5 25.5t-24.5 97.5z" />
<glyph unicode="@" horiz-adv-x="1705" d="M145 670q0 178 64.5 326.5t175.5 256t257 168t310 60.5t290 -50.5t212 -135.5t130 -197.5t44 -237.5q0 -123 -31.5 -216t-87 -154.5t-132.5 -93t-167 -31.5h-155v104q-45 -66 -105.5 -89.5t-134.5 -23.5q-78 0 -131 11.5t-85 37t-45 65.5t-13 95q0 35 4 73t12 83 q18 98 43 166.5t68 110.5t108.5 61.5t163.5 19.5q84 0 133 -19.5t68 -76.5q16 25 31.5 52.5t17.5 27.5h67l-110 -580h94q109 0 169 91.5t60 277.5q0 96 -29.5 186t-94 159t-165 111t-239.5 42q-133 0 -248.5 -49.5t-201.5 -137.5t-136.5 -211t-50.5 -268q0 -127 37 -232.5 t109.5 -182t180 -120t247.5 -43.5q78 0 153.5 10.5t155.5 33.5v-134q-33 -12 -74 -20t-85 -13.5t-88 -8.5t-83 -3q-168 0 -300 51.5t-224 143.5t-140.5 221t-48.5 283zM676 573q0 -53 32.5 -69.5t120.5 -16.5q63 0 102.5 8.5t63 34t36.5 71.5t30 120q18 94 18 141 q0 53 -33.5 68.5t-121.5 15.5q-61 0 -99.5 -9t-63 -36t-38.5 -72t-29 -116q-6 -31 -12 -71t-6 -69z" />
<glyph unicode="A" horiz-adv-x="1474" d="M-10 0v94q0 6 45 23.5t119 21.5l438 1319h301l428 -1319q74 -2 119 -20.5t45 -24.5v-94h-531v94q0 6 49.5 26.5t135.5 20.5l-86 279h-633l-90 -279q86 0 136 -20.5t50 -26.5v-94h-526zM467 565h541l-236 744h-61z" />
<glyph unicode="B" horiz-adv-x="1466" d="M51 0v94q0 8 50.5 27.5t131.5 19.5v1176q-82 0 -132 19.5t-50 27.5v94h729q160 0 260.5 -33.5t157.5 -87t78.5 -117t21.5 -120.5q0 -121 -54 -205t-200 -119q106 -16 173 -49t104 -80t50 -105.5t13 -125.5q0 -80 -22.5 -155t-82.5 -133t-166.5 -93t-272.5 -35h-789z M401 154h439q119 0 191.5 17t112.5 51t52 83t12 111q0 61 -12 110t-52 85t-113 54.5t-191 18.5h-439v-530zM401 834h353q121 0 193.5 19t112.5 53t52 79t12 96q0 53 -14 95.5t-52 71t-106.5 44t-175.5 15.5h-375v-473z" />
<glyph unicode="C" horiz-adv-x="1441" d="M102 735q0 207 27 351.5t99.5 234.5t197.5 131t322 41q166 0 270 -36t166 -116q8 53 22.5 85t18.5 32h106v-475h-123q-10 106 -34.5 175t-75.5 109t-136 54t-214 14q-156 0 -248 -23.5t-141.5 -89t-64.5 -183t-15 -304.5q0 -188 14 -306t62 -183.5t141.5 -89t251.5 -23.5 q150 0 239.5 22.5t140 59.5t70 85t27.5 99h112v-10q0 -4 1 -11t1 -18q0 -82 -28.5 -151.5t-96 -120.5t-181 -81t-285.5 -30q-203 0 -330 41t-196.5 131.5t-94.5 234.5t-25 351z" />
<glyph unicode="D" horiz-adv-x="1501" d="M51 0v94q0 8 50.5 27.5t131.5 19.5v1176q-82 0 -132 19.5t-50 27.5v94h694q207 0 335 -40t199 -127t95.5 -224t24.5 -332q0 -199 -24.5 -338t-95.5 -227t-199 -129t-335 -41h-694zM401 154h344q160 0 255.5 22.5t144.5 85t63.5 176t14.5 297.5q0 176 -14.5 288 t-63.5 174.5t-144.5 86t-255.5 23.5h-344v-1153z" />
<glyph unicode="E" horiz-adv-x="1384" d="M51 0v94q0 8 50.5 27.5t131.5 19.5v1176q-82 0 -132 19.5t-50 27.5v94h1209v-450h-97q-4 0 -14 17t-19.5 54t-16.5 93.5t-7 134.5h-705v-480h330q0 84 19.5 134.5t27.5 50.5h92v-523h-92q-8 0 -27.5 51.5t-19.5 137.5h-330v-528h742q2 180 25.5 255.5t33.5 75.5h101v-481 h-1252z" />
<glyph unicode="F" horiz-adv-x="1345" d="M51 0v94q0 8 50.5 27.5t131.5 19.5v1176q-82 0 -132 19.5t-50 27.5v94h1213v-450h-97q-8 0 -31.5 71.5t-23.5 227.5h-711v-605h369q0 84 19.5 134.5t27.5 50.5h94v-522h-94q-8 0 -27.5 51t-19.5 137h-369v-412h66q82 0 133 -19.5t51 -27.5v-94h-600z" />
<glyph unicode="G" horiz-adv-x="1540" d="M102 735q0 207 25 351.5t94.5 234.5t196.5 131t330 41q166 0 270 -36t166 -116q8 53 22.5 85t18.5 32h106v-475h-123q-10 106 -34.5 175t-75.5 109t-136 54t-214 14q-158 0 -251.5 -23.5t-141.5 -89t-62 -183t-14 -304.5q0 -188 14 -306t62 -183.5t141.5 -89t251.5 -23.5 q143 0 225 33t124 93t54 145t18 192q-80 0 -133 6t-87 13.5t-48 14.5t-14 11v94h592v-94q0 -4 -22.5 -11t-49.5 -16q-31 -8 -70 -18v-596h-94q-8 0 -26.5 50t-18.5 132v78q-35 -145 -146.5 -214t-303.5 -69q-203 0 -330 41t-196.5 131.5t-94.5 234.5t-25 351z" />
<glyph unicode="H" horiz-adv-x="1579" d="M51 0v94q0 8 50.5 27.5t131.5 19.5v1176q-82 0 -132 19.5t-50 27.5v94h535v-94q0 -8 -51.5 -27.5t-133.5 -19.5v-490h775v490q-82 0 -132.5 19.5t-50.5 27.5v94h535v-94q0 -8 -50.5 -27.5t-131.5 -19.5v-1176q82 0 132 -19.5t50 -27.5v-94h-535v94q0 8 50.5 27.5 t132.5 19.5v537h-775v-537q82 0 133.5 -19.5t51.5 -27.5v-94h-535z" />
<glyph unicode="I" horiz-adv-x="636" d="M51 0v94q0 8 50.5 27.5t131.5 19.5v1176q-82 0 -132 19.5t-50 27.5v94h535v-94q0 -8 -51.5 -27.5t-133.5 -19.5v-1176q82 0 133.5 -19.5t51.5 -27.5v-94h-535z" />
<glyph unicode="J" horiz-adv-x="927" d="M20 322q0 145 69 224t171 79q41 0 68.5 -7.5t27.5 -15.5v-96q-111 0 -144.5 -47t-33.5 -137q0 -45 6 -80t25.5 -59.5t54.5 -37t92 -12.5t93 12.5t55.5 43t26 84t6.5 137.5v907h-66q-82 0 -132 19.5t-50 27.5v94h598v-94q0 -8 -50.5 -27.5t-131.5 -19.5v-907 q0 -109 -14.5 -191t-53.5 -135t-106.5 -80t-174.5 -27q-102 0 -167.5 28t-102.5 75t-51.5 109.5t-14.5 132.5z" />
<glyph unicode="K" horiz-adv-x="1456" d="M51 0v94q0 8 50.5 27.5t131.5 19.5v1176q-82 0 -132 19.5t-50 27.5v94h535v-94q0 -8 -51.5 -27.5t-133.5 -19.5v-662l594 664q-66 4 -104.5 21.5t-38.5 23.5v94h534v-94q0 -8 -50 -27.5t-132 -19.5l-446 -492l489 -684q88 0 137.5 -19.5t49.5 -27.5v-94h-549v94 q0 2 12 10.5t33.5 15.5t51.5 13t62 6l-397 563l-246 -268v-293q82 0 133.5 -19.5t51.5 -27.5v-94h-535z" />
<glyph unicode="L" horiz-adv-x="1251" d="M51 0v94q0 8 50.5 27.5t131.5 19.5v1176q-82 0 -132 19.5t-50 27.5v94h600v-94q0 -8 -51 -27.5t-133 -19.5h-66v-1167h670q0 104 7 174.5t17.5 113.5t20.5 61.5t14 18.5h101v-518h-1180z" />
<glyph unicode="M" horiz-adv-x="1843" d="M51 0v94q0 8 50.5 27.5t131.5 19.5v1176q-82 0 -132 19.5t-50 27.5v94h522l347 -1239l340 1239h532v-94q0 -8 -51 -27.5t-133 -19.5v-1176q82 0 133 -19.5t51 -27.5v-94h-537v94q0 8 50.5 27.5t132.5 19.5v1168h-49l-381 -1309h-179l-383 1309h-47v-1168 q82 0 133.5 -19.5t51.5 -27.5v-94h-533z" />
<glyph unicode="N" horiz-adv-x="1570" d="M51 0v94q0 8 50.5 27.5t131.5 19.5v1176q-82 0 -132 19.5t-50 27.5v94h500l579 -1308h48v1167q-82 0 -128 19.5t-46 27.5v94h516v-94q0 -8 -50.5 -27.5t-132.5 -19.5v-1317h-311l-586 1309h-47v-1168q82 0 133.5 -19.5t51.5 -27.5v-94h-527z" />
<glyph unicode="O" horiz-adv-x="1511" d="M102 735q0 207 25 351.5t95.5 234.5t198.5 131t335 41t335 -41t198.5 -131t95 -234.5t24.5 -351.5t-24.5 -351t-95 -234.5t-198.5 -131.5t-335 -41t-335 41t-198.5 131.5t-95.5 234.5t-25 351zM276 735q0 -188 14.5 -306t63.5 -184.5t144.5 -90t257.5 -23.5t257 23.5 t145 90t64.5 184.5t14.5 306t-14.5 306t-64.5 183.5t-145 89t-257 23.5t-257.5 -23.5t-144.5 -89t-63.5 -183.5t-14.5 -306z" />
<glyph unicode="P" horiz-adv-x="1402" d="M51 0v94q0 8 50.5 27.5t131.5 19.5v1176q-82 0 -132 19.5t-50 27.5v94h754q166 0 272.5 -36t168 -99t84 -151.5t22.5 -192.5t-22.5 -191.5t-84 -151t-168 -99t-272.5 -35.5h-404v-361h66q82 0 133 -19.5t51 -27.5v-94h-600zM401 653h404q121 0 193.5 18.5t112.5 58.5 t52.5 101.5t12.5 147.5t-12.5 148.5t-52.5 102.5t-112.5 58.5t-193.5 18.5h-404v-654z" />
<glyph unicode="Q" horiz-adv-x="1511" d="M102 735q0 207 25 351.5t95.5 234.5t198.5 131t335 41t335 -41t198.5 -131t95 -234.5t24.5 -351.5q0 -152 -12.5 -269.5t-45 -204.5t-91 -145.5t-150.5 -90.5q35 -59 80 -93t117 -34h159v-95q0 -8 -50 -27.5t-132 -19.5q-39 0 -84 5.5t-90 29t-89 69.5t-83 128 q-41 -4 -86 -7.5t-96 -3.5q-207 0 -335 41t-198.5 131.5t-95.5 234.5t-25 351zM276 735q0 -188 14.5 -306t63.5 -184.5t144.5 -90t257.5 -23.5q31 0 59.5 1t54.5 3l-24 53q-8 16 -17.5 34t-27 32t-45 23.5t-70.5 9.5h-92v94q0 8 47 27.5t129 19.5q86 0 143.5 -47t110.5 -166 l23 -49q61 23 99 64.5t58.5 109.5t26.5 165t6 230q0 188 -14.5 306t-64.5 183.5t-145 89t-257 23.5t-257.5 -23.5t-144.5 -89t-63.5 -183.5t-14.5 -306z" />
<glyph unicode="R" horiz-adv-x="1507" d="M51 0v94q0 8 50.5 27.5t131.5 19.5v1176q-82 0 -132 19.5t-50 27.5v94h729q166 0 271.5 -37t167 -97t84 -138t22.5 -158q0 -68 -14.5 -130t-54 -113.5t-111.5 -87t-184 -50.5q127 -45 176 -125t49 -186v-78q0 -74 14 -100.5t62 -26.5q47 0 61 26.5t14 100.5v168h97 q4 0 12 -16.5t17.5 -46t16.5 -69.5t7 -85q0 -47 -10.5 -88t-36 -74t-69.5 -51.5t-109 -18.5q-147 0 -198.5 84t-51.5 244q0 80 -17.5 136.5t-63.5 90t-124 49t-199 15.5h-207v-455q82 0 133.5 -19.5t51.5 -27.5v-94h-535zM401 745h379q119 0 191.5 20.5t112.5 57.5 t52.5 89.5t12.5 115.5q0 61 -12.5 112.5t-52.5 88.5t-112.5 57.5t-191.5 20.5h-379v-562z" />
<glyph unicode="S" horiz-adv-x="1368" d="M82 0v494h129q6 -94 27.5 -164t70.5 -115t133 -67.5t213 -22.5q143 0 227.5 18.5t129.5 53t58 85t13 115.5q0 63 -19.5 110.5t-68.5 80.5t-132 49t-208 16q-158 0 -262 31t-166.5 87t-88 135t-25.5 175q0 197 134 304.5t408 107.5q156 0 251 -48t136 -108q8 55 22.5 87 t20.5 32h111v-473h-123q-12 106 -42 174t-81 107t-124.5 53t-170.5 14q-193 0 -284.5 -61.5t-91.5 -188.5q0 -61 14 -110t56 -84t116 -53.5t190 -18.5q180 0 299 -33.5t187.5 -92t96.5 -134.5t28 -158q0 -84 -24.5 -161.5t-92.5 -138t-186.5 -97.5t-307.5 -37 q-135 0 -244.5 37t-174.5 121q-8 -55 -22.5 -88t-20.5 -33h-111z" />
<glyph unicode="T" horiz-adv-x="1314" d="M61 940v516h1192v-520l-98 2q-4 0 -14.5 18.5t-20.5 61.5t-17 113.5t-7 175.5h-355v-1166q113 0 168.5 -19.5t55.5 -27.5v-94h-615v94q0 8 55.5 27.5t167.5 19.5v1166h-354q0 -102 -7 -173t-17.5 -114t-20.5 -61.5t-14 -18.5h-99z" />
<glyph unicode="U" horiz-adv-x="1626" d="M51 1364v94h578v-94q0 -8 -50.5 -27.5t-132.5 -19.5h-43v-742q0 -121 16.5 -204.5t60.5 -137t125 -77t210 -23.5t210 23.5t125 77t60.5 137.5t16.5 204v742h-43q-82 0 -132.5 19.5t-50.5 27.5v94h574v-94q0 -8 -50 -27.5t-132 -19.5v-742q0 -137 -23.5 -247.5t-87 -188.5 t-177.5 -120t-292 -42t-291.5 42t-177 120t-87.5 188.5t-24 247.5v742q-82 0 -132 19.5t-50 27.5z" />
<glyph unicode="V" horiz-adv-x="1468" d="M-10 1364v94h534v-94q0 -8 -50 -27.5t-134 -19.5l379 -1167h37l374 1167q-82 0 -133 19.5t-51 27.5v94h533v-94q0 -8 -45 -25.5t-119 -21.5l-436 -1317h-285l-440 1317q-74 4 -119 21.5t-45 25.5z" />
<glyph unicode="W" horiz-adv-x="2093" d="M0 1364v94h532v-94q0 -8 -50 -27.5t-134 -19.5l289 -1167h37l301 1118l-12 49q-76 2 -123 20.5t-47 26.5v94h514v-94q0 -8 -47.5 -26.5t-124.5 -20.5l284 -1167h37l287 1167q-82 0 -132 19.5t-50 27.5v94h532v-94q0 -8 -45 -25.5t-119 -21.5l-350 -1317h-285l-233 983 l-262 -983h-289l-346 1317q-74 4 -119 21.5t-45 25.5z" />
<glyph unicode="X" horiz-adv-x="1400" d="M-10 0v94q0 6 46 24.5t122 20.5l430 617l-393 561q-78 2 -125 20.5t-47 26.5v94h528v-94q0 -8 -42 -25.5t-112 -21.5l305 -443l299 443q-70 4 -111.5 21.5t-41.5 25.5v92h524v-94q0 -6 -47 -24.5t-125 -20.5l-395 -565l432 -613q78 0 126 -19.5t48 -25.5v-94h-537v94 q0 6 43.5 23.5t112.5 21.5l-338 490l-338 -490q74 -4 120 -21.5t46 -25.5v-92h-530z" />
<glyph unicode="Y" horiz-adv-x="1468" d="M-10 1364v94h534v-94q0 -8 -42 -24.5t-109 -20.5l364 -635l363 633q-72 4 -114 21.5t-42 25.5v94h535v-94q0 -8 -51.5 -27.5t-133.5 -19.5l-477 -813v-363q113 0 168 -19.5t55 -27.5v-94h-614v94q0 8 55.5 27.5t167.5 19.5v371l-477 805q-82 0 -132 19.5t-50 27.5z" />
<glyph unicode="Z" horiz-adv-x="1288" d="M51 0v94l899 1213h-698q0 -78 -7 -134.5t-16.5 -93.5t-19.5 -54t-14 -17h-97v450h1102v-94l-899 -1214h766q0 98 7 167.5t17.5 112.5t20.5 63.5t14 20.5h101v-514h-1176z" />
<glyph unicode="[" horiz-adv-x="673" d="M227 -324v1817h344v-90q0 -8 -51 -27.5t-133 -19.5v-1542q82 0 133 -19.5t51 -27.5v-91h-344z" />
<glyph unicode="\" horiz-adv-x="708" d="M20 1458h183l485 -1458h-164z" />
<glyph unicode="]" horiz-adv-x="673" d="M102 -233q0 8 51.5 27.5t133.5 19.5v1542q-82 0 -133.5 19.5t-51.5 27.5v90h344v-1817h-344v91z" />
<glyph unicode="^" horiz-adv-x="1122" d="M102 768l377 680h148l393 -680h-186l-285 535l-273 -535h-174z" />
<glyph unicode="_" horiz-adv-x="1314" d="M-10 -203h1335v-137h-1335v137z" />
<glyph unicode="`" horiz-adv-x="1269" d="M459 1630h174l104 -358h-125z" />
<glyph unicode="a" horiz-adv-x="1284" d="M102 326q0 70 17.5 129t69 104t146.5 70.5t253 25.5h327q-2 100 -14 164t-46 100.5t-94.5 50t-156.5 13.5q-86 0 -139 -9t-85 -30.5t-45 -56.5t-20 -84h-133v301h117q8 -16 25 -72q27 41 96 71t184 30q147 0 240.5 -32t144.5 -100.5t69.5 -179t18.5 -266.5v-418h176v-94 q0 -6 -66.5 -27.5t-189.5 -21.5h-30l-6 139q-39 -70 -126 -113t-247 -43q-152 0 -247 28t-148.5 76t-72 110.5t-18.5 134.5zM262 326q0 -51 9.5 -88t43 -61.5t98 -37t175.5 -12.5q115 0 181.5 12.5t100 37t43 61t9.5 88.5v196h-334q-106 0 -170 -13t-98.5 -39t-46 -62.5 t-11.5 -81.5z" />
<glyph unicode="b" horiz-adv-x="1333" d="M20 1368v94q0 6 67 27.5t189 21.5h78v-507q49 68 130 98.5t210 30.5q160 0 259.5 -32t153.5 -100.5t73.5 -179t19.5 -266.5q0 -158 -19.5 -267.5t-73.5 -178t-153.5 -100.5t-259.5 -32q-162 0 -251 49.5t-130 159.5q-6 -92 -23.5 -139t-23.5 -47h-69v1368h-177zM348 555 q0 -137 10.5 -221t45 -130t104.5 -61.5t186 -15.5q119 0 187.5 15.5t103.5 61.5t45 130t10 221q0 135 -10 219t-45 130t-103.5 62.5t-187.5 16.5q-117 0 -186.5 -16.5t-104 -62.5t-45 -130t-10.5 -219z" />
<glyph unicode="c" horiz-adv-x="1247" d="M133 555q0 156 19.5 266.5t75 179t154.5 100.5t259 32q119 0 198 -26t128 -79q12 57 24 76h103v-373h-113q-4 70 -16.5 118t-48 77.5t-100 43t-175.5 13.5q-119 0 -188.5 -16.5t-104.5 -62.5t-45 -130t-10 -219q0 -137 10 -221t45 -130t104.5 -61.5t188.5 -15.5 q117 0 183.5 14.5t101.5 40t46 60t19 77.5h103q0 -53 -7.5 -113.5t-49.5 -110.5t-134 -84t-262 -34q-160 0 -259 32t-154.5 100.5t-75 178t-19.5 267.5z" />
<glyph unicode="d" horiz-adv-x="1343" d="M133 555q0 156 19.5 266.5t74 179t153.5 100.5t259 32q129 0 211 -31t129 -98v364h-176v94q0 6 65.5 27.5t190.5 21.5h78v-1374h176v-94q0 -6 -65.5 -27.5t-188.5 -21.5h-31l-8 192q-41 -111 -130 -160t-251 -49q-160 0 -259 32t-153.5 100.5t-74 178t-19.5 267.5z M293 555q0 -137 9 -221t45 -130t104.5 -61.5t187.5 -15.5q117 0 186.5 15.5t104.5 61.5t45 130t10 221t-10 221t-45 130t-104.5 61.5t-186.5 15.5q-119 0 -187.5 -15.5t-104.5 -61.5t-45 -130t-9 -221z" />
<glyph unicode="e" horiz-adv-x="1253" d="M133 555q0 156 19.5 266.5t74 179t151.5 100.5t255 32q150 0 245 -33t149 -96.5t74.5 -153.5t20.5 -203q0 -25 -1 -48.5t-1 -39.5q-2 -20 -2 -37h-833q0 -127 13 -203.5t51 -119.5t109.5 -57.5t188.5 -14.5q113 0 179.5 14.5t103.5 40t51 60t23 77.5h102 q0 -53 -9.5 -113.5t-53.5 -110.5t-137 -84t-259 -34q-164 0 -264 32t-155.5 100.5t-75 178t-19.5 267.5zM291 657h680q0 100 -16.5 164t-55.5 100.5t-103.5 51t-162.5 14.5q-104 0 -169 -13t-101.5 -49t-52 -101t-19.5 -167z" />
<glyph unicode="f" horiz-adv-x="690" d="M61 0v94q0 8 51.5 27.5t125.5 19.5v832h-177v90q0 6 45.5 22.5t131.5 24.5v64q0 133 35.5 205.5t88 106.5t113 40t109.5 6v-102q-43 -6 -78 -19.5t-59.5 -41.5t-38 -75t-13.5 -120v-70h254v-131h-254v-832q76 0 126 -19.5t50 -27.5v-94h-510z" />
<glyph unicode="g" horiz-adv-x="1333" d="M102 -170q0 37 6.5 73t31 64.5t73.5 48t135 23.5q-61 12 -97 37.5t-54.5 56.5t-23.5 62.5t-5 56.5q0 43 23.5 89t52.5 67q-49 53 -66.5 129.5t-17.5 175.5q0 100 18.5 179t70.5 132t147.5 81t248.5 28q184 0 284.5 -39t147.5 -115q35 20 43 55t8 58v165h144v-20 q0 -133 -32 -221t-124 -137q10 -37 13.5 -78t3.5 -88q0 -102 -18.5 -180t-71 -130.5t-148.5 -80t-250 -27.5q-115 0 -194.5 15.5t-135.5 43.5q-10 -10 -21 -32.5t-11 -59.5q0 -25 14 -50.5t63.5 -47t141.5 -34.5t250 -13q170 0 270 -18.5t153.5 -53.5t69 -83t15.5 -107 t-16.5 -108.5t-75 -86.5t-174 -57.5t-312.5 -20.5t-311.5 21.5t-174 56.5t-77 79t-17.5 91zM246 -156q0 -35 11 -59.5t54 -39.5t129 -22.5t238 -7.5t237.5 7.5t128.5 22.5t54.5 40t11.5 59q0 35 -11.5 59.5t-54.5 40t-129 22.5t-237 7q-152 0 -238 -7t-129 -22.5t-54 -40 t-11 -59.5zM311 713q0 -82 9.5 -136.5t44 -86t100 -44t180.5 -12.5t181.5 12.5t101.5 44t44 86t9 136.5t-9 136t-44 87t-101.5 45t-181.5 12t-180.5 -12t-100 -45t-44 -87t-9.5 -136z" />
<glyph unicode="h" horiz-adv-x="1404" d="M51 0v94q0 8 51.5 27.5t124.5 19.5v1227h-176v94q0 6 66.5 27.5t189.5 21.5h78v-610q18 47 47 89t72 74t103.5 50.5t140.5 18.5q137 0 225 -33t138 -102.5t69.5 -178t19.5 -258.5v-420q74 0 124 -19.5t50 -27.5v-94h-510v94q0 8 51.5 27.5t124.5 19.5v420q0 133 -9 216 t-43 129t-98.5 61.5t-174.5 15.5q-92 0 -154.5 -31.5t-101.5 -86t-56.5 -128t-17.5 -155.5v-441q76 0 126 -19.5t50 -27.5v-94h-510z" />
<glyph unicode="i" horiz-adv-x="612" d="M61 0v94q0 8 51.5 27.5t125.5 19.5v828h-177v94q0 8 67 28.5t189 20.5h78v-971q76 0 126 -19.5t50 -27.5v-94h-510zM203 1380q0 33 3 52.5t14 31t32.5 15.5t58.5 4t58.5 -4t33 -15.5t14.5 -31t3 -52.5t-3 -52t-14.5 -30.5t-33 -14.5t-58.5 -3t-58.5 3t-32.5 14.5 t-14 30.5t-3 52z" />
<glyph unicode="j" horiz-adv-x="598" d="M41 -317q43 6 78 19t59.5 42t37.5 76t13 119v1030h-176v94q0 8 66.5 28.5t189.5 20.5h80v-1173q0 -133 -36 -206t-89 -107t-113.5 -40t-109.5 -6v103zM195 1380q0 33 3 52.5t14 31t32.5 15.5t58.5 4t58.5 -4t33 -15.5t14.5 -31t3 -52.5t-3 -52t-14.5 -30.5t-33 -14.5 t-58.5 -3t-58.5 3t-32.5 14.5t-14 30.5t-3 52z" />
<glyph unicode="k" horiz-adv-x="1249" d="M51 0v94q0 8 51.5 27.5t124.5 19.5v1227h-176v94q0 6 57.5 27.5t167.5 21.5h109v-970l414 424q-59 4 -94 21.5t-35 23.5v94h491v-94q0 -4 -13 -12.5t-35.5 -15.5t-52.5 -13t-63 -6l-325 -328l409 -496q68 -4 113 -21.5t45 -23.5v-94h-481v94q0 6 34.5 20.5t88.5 22.5 l-318 391l-178 -166v-221q76 0 126 -19.5t50 -27.5v-94h-510z" />
<glyph unicode="l" horiz-adv-x="602" d="M51 0v94q0 8 51.5 27.5t124.5 19.5v1227h-176v94q0 6 66.5 27.5t189.5 21.5h78v-1370q76 0 126 -19.5t50 -27.5v-94h-510z" />
<glyph unicode="m" horiz-adv-x="1957" d="M61 0v94q0 8 51.5 27.5t125.5 19.5v420q0 78 -2.5 151.5t-4.5 131.5q-4 68 -6 125h-164v94q0 8 67 28.5t189 20.5h29l8 -205q35 117 108 171.5t189 54.5q154 0 241 -48.5t128 -152.5q41 98 117.5 149.5t199.5 51.5q125 0 206 -32t128 -100.5t64.5 -177t17.5 -262.5v-420 q74 0 124 -19.5t50 -27.5v-94h-493v94q0 8 43 27.5t116 19.5v420q0 135 -8 217t-35.5 128t-78 61.5t-134.5 15.5t-137 -20.5t-83 -68.5t-40 -129t-10 -204v-420q74 0 124 -19.5t50 -27.5v-94h-477v94q0 8 40 27.5t103 19.5v420q0 135 -8 217t-35.5 128t-78 61.5t-134.5 15.5 q-78 0 -127 -16.5t-77.5 -58.5t-40 -115.5t-11.5 -188.5v-463q76 0 126 -19.5t50 -27.5v-94h-510z" />
<glyph unicode="n" horiz-adv-x="1400" d="M61 0v94q0 8 51.5 27.5t125.5 19.5v420q0 78 -2.5 151.5t-6.5 131.5q-4 68 -6 125h-162v94q0 8 67 28.5t189 20.5h29l8 -205q37 119 122 172.5t241 53.5q150 0 243 -32t145 -100.5t70.5 -177t18.5 -262.5v-420q74 0 125 -19.5t51 -27.5v-94h-493v94q0 8 42 27.5t115 19.5 v420q0 135 -9 217t-42 128t-96.5 61.5t-169.5 15.5q-109 0 -172.5 -15.5t-97 -61.5t-43 -129t-9.5 -216v-420q76 0 126 -19.5t50 -27.5v-94h-510z" />
<glyph unicode="o" horiz-adv-x="1290" d="M133 555q0 156 19.5 266.5t75 179t155.5 100.5t262 32t262.5 -32t155.5 -100.5t74.5 -179t19.5 -266.5q0 -158 -19.5 -267.5t-74.5 -178t-155.5 -100.5t-262.5 -32t-262 32t-155.5 100.5t-75 178t-19.5 267.5zM291 555q0 -137 10 -222t46 -131t106.5 -61.5t191.5 -15.5 t191.5 15.5t106.5 61.5t46 131t10 222t-10 221t-46 130t-106.5 62.5t-191.5 16.5t-191.5 -16.5t-106.5 -62.5t-46 -130t-10 -221z" />
<glyph unicode="p" horiz-adv-x="1353" d="M41 -311q0 8 51 27.5t125 19.5v825q0 78 -2 151.5t-4 131.5q-4 68 -6 125h-164v94q0 8 66.5 28.5t189.5 20.5h31l6 -188q41 111 130 160t251 49q160 0 259 -32t153.5 -100.5t74 -179t19.5 -266.5q0 -158 -19.5 -267.5t-74 -178t-154 -100.5t-258.5 -32q-129 0 -210 31 t-130 96v-368q76 0 126 -19.5t50 -27.5v-95h-510v95zM369 555q0 -137 10 -221t45 -130t104.5 -61.5t186.5 -15.5q119 0 187.5 15.5t103 61.5t45 130t10.5 221q0 135 -10.5 219t-45 130t-103 62.5t-187.5 16.5q-117 0 -186.5 -16.5t-104.5 -62.5t-45 -130t-10 -219z" />
<glyph unicode="q" horiz-adv-x="1343" d="M133 555q0 156 19.5 266.5t74 179t153.5 100.5t259 32q162 0 251 -49.5t130 -161.5q8 90 24.5 136t22.5 46h70v-1366q76 0 126 -19.5t50 -25.5v-94h-510v94q0 6 51 25.5t125 19.5v366q-47 -66 -129 -96.5t-211 -30.5q-160 0 -259 32t-153.5 100.5t-74 178t-19.5 267.5z M293 555q0 -137 9 -221t45 -130t104.5 -61.5t187.5 -15.5q117 0 186.5 15.5t104.5 61.5t45 130t10 221q0 135 -10 219t-45 130t-104.5 62.5t-186.5 16.5q-119 0 -187.5 -16.5t-104.5 -62.5t-45 -130t-9 -219z" />
<glyph unicode="r" horiz-adv-x="937" d="M61 0v94q0 8 51.5 27.5t125.5 19.5v420q0 78 -2.5 151.5t-6.5 131.5q-4 68 -6 125h-162v94q0 8 67 28.5t189 20.5h31l8 -244q27 119 113 182.5t240 63.5q80 0 178 -18v-250h-70q-12 66 -51 91.5t-111 25.5q-70 0 -119 -18.5t-80.5 -62.5t-46 -120t-14.5 -193v-428 q92 0 150.5 -19.5t58.5 -27.5v-94h-543z" />
<glyph unicode="s" horiz-adv-x="1249" d="M143 0v379h113q2 -72 22.5 -120t63.5 -78.5t113.5 -44t175.5 -13.5q104 0 169.5 12t100.5 36t47.5 58.5t12.5 79.5q0 43 -12.5 78t-48.5 57.5t-100.5 35t-168.5 12.5q-152 0 -245 26.5t-144.5 71.5t-69.5 101.5t-18 117.5t18 119.5t70.5 103.5t145.5 73t243 28 q113 0 183.5 -25t119.5 -78q14 57 24 74h103v-373h-113q-4 70 -15 119t-43 80t-93.5 44t-165.5 13q-109 0 -172.5 -12t-97 -36t-43 -56.5t-9.5 -73.5t9.5 -72.5t43 -54.5t97 -35t172.5 -12q152 0 247 -26.5t148 -71.5t71.5 -104.5t18.5 -123.5q0 -66 -18.5 -125t-71.5 -105 t-148.5 -74t-246.5 -28q-117 0 -212 26t-147 83q-8 -35 -16 -56.5t-14 -29.5h-99z" />
<glyph unicode="t" horiz-adv-x="770" d="M41 973v90q0 6 42 21.5t120 23.5v291h159v-295h324v-131h-324v-727q0 -72 17.5 -97.5t79.5 -25.5q61 0 78.5 25.5t17.5 97.5v260h94q6 0 27.5 -66.5t21.5 -189.5q0 -63 -12 -113.5t-41 -86.5t-76 -54.5t-118 -18.5q-74 0 -121 18.5t-76 54.5t-40 86t-11 114v723h-162z " />
<glyph unicode="u" horiz-adv-x="1363" d="M41 969v94q0 8 66.5 28.5t189.5 20.5h78v-563q0 -135 9 -217t41 -128t93.5 -61.5t163.5 -15.5t163.5 15.5t93.5 61.5t41 128t9 217v420h-184v94q0 8 65.5 28.5t188.5 20.5h90v-975h174v-94q0 -6 -65.5 -27.5t-188.5 -21.5h-31l-8 205q-35 -117 -118 -169.5t-230 -52.5 t-237.5 30t-141.5 97.5t-68.5 177t-17.5 267.5v420h-176z" />
<glyph unicode="v" horiz-adv-x="1183" d="M-10 1010v94h448v-94q0 -8 -38 -25.5t-103 -21.5l278 -828h35l277 828q-66 4 -104 21t-38 26v94h449v-94q0 -8 -42 -25.5t-101 -21.5l-334 -963h-250l-334 963q-59 4 -101 21.5t-42 25.5z" />
<glyph unicode="w" horiz-adv-x="1787" d="M-10 1010v94h454v-94q0 -8 -38.5 -25.5t-106.5 -21.5l236 -828h32l271 971h108l275 -973h34l232 830q-66 2 -105 20t-39 25v94h455v-94q0 -6 -41 -23.5t-100 -21.5l-289 -963h-256l-219 776l-219 -776h-254l-289 965q-59 4 -100 21.5t-41 23.5z" />
<glyph unicode="x" horiz-adv-x="1110" d="M0 0v94q0 2 12.5 9.5t31.5 14.5t45 13t50 8l332 424l-311 402q-53 2 -95 20.5t-42 24.5v94h436v-94q0 -6 -33 -21.5t-76 -21.5l215 -289l219 289q-43 6 -77.5 22.5t-34.5 20.5v94h428l-6 -94q0 -4 -12.5 -10.5t-32 -13.5t-44 -13t-49.5 -8l-313 -400l328 -426 q27 -2 51.5 -8t43.5 -13t31.5 -14.5t12.5 -9.5v-94h-436v94q0 6 33.5 22.5t76.5 20.5l-235 318l-234 -318q41 -6 74 -21.5t33 -21.5v-94h-422z" />
<glyph unicode="y" horiz-adv-x="1183" d="M-10 1010v94h448v-94q0 -8 -38 -25.5t-103 -21.5l278 -830h33l279 830q-66 4 -104 21t-38 26v94h449v-94q0 -8 -42 -25.5t-101 -21.5l-422 -1201q-10 -27 -24.5 -59.5t-42 -62t-74 -50t-117.5 -20.5q-137 0 -190.5 68.5t-53.5 185.5v22h102q12 -80 37 -108.5t92 -28.5 q35 0 57.5 6t38 20.5t25.5 37t23 53.5l63 174h-98l-334 963q-59 4 -101 21.5t-42 25.5z" />
<glyph unicode="z" horiz-adv-x="1130" d="M102 0v141l707 822h-541q-4 -111 -23.5 -168.5t-27.5 -57.5h-94v367h891v-141l-703 -822h574q4 111 23.5 168.5t25.5 57.5h94v-367h-926z" />
<glyph unicode="{" horiz-adv-x="788" d="M82 541v123q55 2 93 12t60.5 31.5t33 56.5t10.5 90v55q0 174 29.5 290t81.5 185.5t124 98t154 28.5q10 0 18 -1t12 -1q6 -2 9 -2v-112q-51 -8 -99.5 -27.5t-86.5 -71t-61.5 -143.5t-23.5 -244v-49q0 -231 -186 -256q94 -8 140 -75.5t46 -184.5v-86q0 -152 23.5 -244 t61.5 -143t86 -70.5t100 -27.5v-113q-2 -2 -9 -2q-6 -2 -30 -2q-82 0 -153 28.5t-123 98.5t-81.5 187.5t-29.5 293.5v84q0 104 -44 146.5t-155 46.5z" />
<glyph unicode="|" horiz-adv-x="577" d="M205 -401v2199h168v-2199h-168z" />
<glyph unicode="}" horiz-adv-x="788" d="M82 -227q51 8 99 27.5t86 70.5t61.5 143t23.5 244v86q0 231 187 256q-94 8 -140.5 75.5t-46.5 184.5v49q0 152 -23.5 244t-61.5 143.5t-86 70.5t-99 28v112q2 0 8 2q4 0 12.5 1t18.5 1q82 0 152.5 -28.5t123 -98t82 -187.5t29.5 -294v-47q0 -104 44 -146t155 -46v-123 q-55 -4 -93.5 -13.5t-61 -31t-32.5 -56t-10 -90.5v-92q0 -174 -29.5 -289.5t-82 -185.5t-124 -98.5t-153.5 -28.5q-25 0 -31 2q-6 0 -8 2v113z" />
<glyph unicode="~" horiz-adv-x="1122" d="M94 471q14 94 43 156.5t68 99.5t84 52.5t94 15.5q61 0 119.5 -31t109.5 -66q43 -31 81 -51t75 -20q39 0 63.5 17.5t39 44t20.5 54t10 50.5h141q-14 -94 -42.5 -157t-67.5 -99.5t-84 -52t-94 -15.5q-61 0 -120 30.5t-110 65.5q-43 31 -80.5 51.5t-74.5 20.5 q-41 0 -64.5 -17.5t-38 -44t-20.5 -55t-10 -49.5h-142z" />
<glyph unicode="&#xa1;" horiz-adv-x="544" d="M143 1006q0 72 25 97t104 25q80 0 104.5 -25.5t24.5 -96.5q0 -72 -24.5 -96.5t-104.5 -24.5t-104.5 24.5t-24.5 96.5zM170 -270q0 14 2 66t5 127t8 166t10 183q10 217 26 484h105q14 -268 24 -486q4 -92 9.5 -183t8.5 -166t5 -126t2 -65q0 -57 -19.5 -77t-83.5 -20 q-63 0 -82.5 20t-19.5 77z" />
<glyph unicode="&#xa2;" d="M264 555q0 147 16.5 252.5t63.5 174.5t131 104.5t219 43.5v248h148v-248q174 -14 256 -102q12 57 24 76h103v-373h-113q-4 63 -14.5 109.5t-39 76t-79.5 45t-137 19.5v-854q92 4 145 20.5t81 41t38 58.5t16 72h103q0 -51 -6.5 -107t-42 -105.5t-113.5 -85t-221 -41.5 v-222h-148v222q-135 8 -219 43.5t-131 104.5t-63.5 174.5t-16.5 252.5zM424 555q0 -125 7 -205t35 -128t82 -68.5t146 -24.5v852q-92 -4 -146 -25.5t-82 -68.5t-35 -128t-7 -204z" />
<glyph unicode="&#xa3;" d="M147 0v94q0 14 24 24.5t59.5 25t77.5 34t78 53t59.5 84t23.5 123.5q0 37 -1 61.5t-2 47t-4 46t-5 58.5h-224v137h203q-4 78 -16 153t-12 140q0 78 18 142.5t60 111.5t111 73t171 26q86 0 152.5 -38t101.5 -98q8 53 22.5 85t18.5 32h106v-436h-122q-14 96 -39 153.5 t-60 88t-79 41t-93 10.5q-100 0 -142 -48t-42 -147q0 -78 8 -144.5t16 -144.5h279v-137h-260q4 -43 7 -91t3 -95q0 -51 -7 -99.5t-25.5 -90.5t-52.5 -74.5t-87 -50.5h668q0 104 7 166.5t17.5 97.5t20.5 46t14 11h100v-471h-1153z" />
<glyph unicode="&#xa4;" d="M176 223l156 154q-29 53 -38 127t-9 172t9 171t38 126l-156 155l109 109l153 -156q102 51 307 52q203 0 304 -52l155 156l109 -109l-156 -153q29 -53 39 -127t10 -172t-10 -172t-39 -127l156 -154l-109 -108l-155 155q-53 -27 -126 -38t-178 -11q-104 0 -178.5 11.5 t-126.5 37.5l-155 -155zM446 676q0 -96 8.5 -154.5t39 -90.5t90 -43t161.5 -11q100 0 160 11t90.5 43t38.5 90.5t8 154.5q0 94 -8 153.5t-38.5 92t-90 44t-160.5 11.5q-102 0 -161.5 -11.5t-90 -44t-39 -92t-8.5 -153.5z" />
<glyph unicode="&#xa5;" horiz-adv-x="1468" d="M41 1323v92h518v-92q0 -6 -41 -22.5t-106 -20.5l303 -616l301 614q-70 4 -111 21.5t-41 23.5v92h518v-92q0 -6 -50 -25.5t-128 -19.5l-190 -363h141v-145h-217l-55 -106h272v-146h-348l-14 -29v-352q109 0 163 -19.5t54 -25.5v-92h-596v92q0 6 53 25.5t164 19.5v361 l-13 20h-346v146h271l-58 106h-213v145h138l-193 363q-78 0 -127 19.5t-49 25.5z" />
<glyph unicode="&#xa6;" horiz-adv-x="577" d="M205 -401v854h168v-854h-168zM205 942v854h168v-854h-168z" />
<glyph unicode="&#xa7;" d="M254 508q0 63 14.5 111.5t39 85t56 63.5t66.5 43q-63 41 -99 103.5t-36 158.5q0 74 25.5 139.5t82 115.5t146.5 79t219 29q70 0 128 -5.5t108.5 -19.5t94.5 -39.5t85 -66.5l-86 -101q-35 20 -69 33.5t-72.5 22t-85 11.5t-103.5 3q-160 0 -233.5 -53.5t-73.5 -143.5 q0 -39 14 -71.5t51 -58t99.5 -43t158.5 -23.5t180.5 -23.5t145.5 -54.5t96 -96.5t35 -149.5q0 -63 -15.5 -112.5t-40 -86t-56 -62.5t-64.5 -44q63 -41 99 -103.5t36 -156.5q0 -74 -25.5 -139.5t-82 -115.5t-146.5 -79t-219 -29q-70 0 -134.5 5.5t-120.5 19.5t-106.5 39.5 t-91.5 66.5l86 101q70 -41 160 -55.5t207 -14.5q160 0 233.5 53.5t73.5 143.5q0 39 -14 71.5t-51 58t-99.5 43t-158.5 23.5t-180.5 23.5t-145.5 54.5t-96 96.5t-35 149.5zM420 532q0 -47 14.5 -80.5t51 -56t99 -37t158.5 -20.5q63 -4 122 -14.5t108 -28.5q37 29 69.5 87 t32.5 150q0 47 -14 81t-51 56.5t-99.5 37t-158.5 20.5q-66 4 -123.5 14.5t-108.5 26.5q-35 -29 -67.5 -86.5t-32.5 -149.5z" />
<glyph unicode="&#xa8;" horiz-adv-x="1269" d="M350 1415q0 33 3 52.5t14.5 30.5t33 15.5t58.5 4.5t58.5 -4.5t32.5 -15.5t14 -30.5t3 -52.5t-3 -52.5t-14 -30.5t-32.5 -14t-58.5 -3t-58.5 3t-33 14t-14.5 30.5t-3 52.5zM702 1415q0 33 3.5 52.5t14.5 30.5t32.5 15.5t58.5 4.5t58.5 -4.5t32.5 -15.5t14.5 -30.5 t3.5 -52.5t-3.5 -52.5t-14.5 -30.5t-32.5 -14t-58.5 -3t-58.5 3t-32.5 14t-14.5 30.5t-3.5 52.5z" />
<glyph unicode="&#xa9;" horiz-adv-x="1662" d="M94 700q0 199 26.5 338.5t106.5 227.5t224.5 129t379.5 41q236 0 380.5 -41t224.5 -129t106.5 -227.5t26.5 -338.5q0 -197 -26.5 -334t-106.5 -223t-224.5 -124.5t-380.5 -38.5t-380 38.5t-224 124.5t-106.5 223t-26.5 334zM248 700q0 -123 6 -215t27.5 -157.5 t60.5 -107.5t103.5 -66.5t158.5 -33.5t227 -9q197 0 311.5 22.5t173 87t75 179t16.5 300.5q0 197 -16.5 313.5t-75 178t-173 80t-311.5 18.5q-131 0 -226 -7t-159.5 -28.5t-103.5 -61.5t-60.5 -105.5t-27.5 -161t-6 -226.5zM428 700q0 117 17.5 197t63.5 131t124 73.5 t201 22.5q82 0 141 -15t100 -42q10 25 19.5 32t15.5 7h86v-297h-119q-4 55 -18.5 89t-42 53.5t-71.5 25.5t-111 6q-82 0 -131.5 -10t-76 -40t-34.5 -85t-8 -148q0 -92 7 -148t32.5 -86t76 -40t134.5 -10q78 0 126 10t75.5 27.5t38.5 41t16 50.5h104q0 -4 2 -13q4 -16 4 -30 q0 -49 -17.5 -90t-59.5 -71t-112.5 -47.5t-176.5 -17.5q-127 0 -206 23t-123 73t-60.5 130.5t-16.5 197.5z" />
<glyph unicode="&#xaa;" horiz-adv-x="1284" d="M86 1030q0 39 9 74t39 60.5t83 40t141 14.5h168q-2 49 -8 80.5t-23.5 48t-48 22.5t-79.5 6q-43 0 -71 -5t-44 -17.5t-23.5 -30.5t-11.5 -45h-88v180h84q0 -4 2 -8t2 -9t2 -9q18 20 54 32.5t94 12.5q82 0 134 -17.5t81.5 -56.5t40 -100.5t10.5 -147.5v-217h94v-59 q0 -6 -38 -21.5t-109 -15.5h-27l-4 57q-25 -29 -72 -48.5t-119 -19.5q-86 0 -139 16.5t-83 43.5t-40 62.5t-10 76.5zM193 1030q0 -25 5 -43t21.5 -30.5t50 -18.5t88.5 -6q57 0 92 6t51.5 18.5t21.5 31t5 42.5v96h-170q-55 0 -87.5 -7t-50 -19.5t-22.5 -29.5t-5 -40z" />
<glyph unicode="&#xab;" horiz-adv-x="886" d="M61 160v157l254 265l-254 268v156l426 -377v-92zM420 160v157l254 265l-254 268v156l426 -377v-92z" />
<glyph unicode="&#xac;" horiz-adv-x="860" d="M82 586v137h659l2 -399h-161v262h-500z" />
<glyph unicode="&#xad;" horiz-adv-x="600" d="M41 586v137h518v-137h-518z" />
<glyph unicode="&#xae;" horiz-adv-x="1705" d="M94 700q0 199 26.5 338.5t106.5 227.5t224.5 129t379.5 41q236 0 380.5 -41t224.5 -129t106.5 -227.5t26.5 -338.5q0 -197 -26.5 -334t-106.5 -223t-224.5 -124.5t-380.5 -38.5t-380 38.5t-224 124.5t-106.5 223t-26.5 334zM248 700q0 -123 6 -215t27.5 -157.5 t60.5 -107.5t103.5 -66.5t158.5 -33.5t227 -9q197 0 311.5 22.5t173 87t75 179t16.5 300.5q0 197 -16.5 313.5t-75 178t-173 80t-311.5 18.5q-131 0 -226 -7t-159.5 -28.5t-103.5 -61.5t-60.5 -105.5t-27.5 -161t-6 -226.5zM424 295v78q0 4 28.5 22.5t75.5 24.5v561 q-51 4 -77.5 23.5t-26.5 27.5v78h450q106 0 173 -21.5t105 -57.5t51.5 -81t13.5 -90q0 -35 -7.5 -66.5t-26 -58t-51 -47t-83.5 -33.5q76 -25 98 -61.5t22 -95.5v-39q0 -41 11 -41h118v-76q0 -4 -7 -13.5t-21.5 -19.5t-37 -18t-52.5 -8q-102 0 -139 51t-37 147 q0 72 -53.5 97.5t-176.5 25.5h-88v-184q47 -6 77 -24.5t30 -22.5v-78h-369zM686 737h188q57 0 93.5 9.5t55.5 25.5t25.5 39t6.5 49q0 25 -6.5 46.5t-25.5 36.5t-55 24.5t-94 9.5h-188v-240z" />
<glyph unicode="&#xaf;" horiz-adv-x="1269" d="M358 1356v137h551v-137h-551z" />
<glyph unicode="&#xb0;" horiz-adv-x="1077" d="M205 1114q0 86 12 145.5t48 97.5t101.5 55.5t172.5 17.5q104 0 169.5 -17.5t102.5 -55.5t49 -97.5t12 -145.5q0 -84 -12 -143.5t-49 -96t-102.5 -53t-169.5 -16.5q-106 0 -172 16.5t-102 53t-48 96t-12 143.5zM356 1114q0 -55 5.5 -89t23.5 -52.5t55 -24.5t99 -6 q61 0 97 6t53.5 24.5t22.5 52.5t5 89q0 57 -5 91t-22.5 52.5t-53.5 23.5t-97 5t-98.5 -5t-55.5 -23.5t-23.5 -52.5t-5.5 -91z" />
<glyph unicode="&#xb1;" horiz-adv-x="823" d="M82 0v137h659v-137h-659zM82 586v137h244v260h161v-260h254v-137h-254v-262h-161v262h-244z" />
<glyph unicode="&#xb2;" horiz-adv-x="864" d="M123 623v102q0 80 30.5 130t78 81t102.5 48t106 30q92 23 133 56.5t41 98.5q0 72 -45 110t-143 38q-55 0 -91 -12.5t-56.5 -33t-30.5 -47t-15 -53.5h-88q0 4 -1 11.5t-1 17.5q0 47 14.5 88t48.5 71t87 46t133 16q147 0 221 -65.5t74 -186.5q0 -119 -69.5 -176t-188.5 -84 q-109 -23 -169.5 -60.5t-60.5 -131.5h390q2 70 17 107.5t24 37.5h55v-239h-596z" />
<glyph unicode="&#xb3;" horiz-adv-x="833" d="M102 827v31h93q2 -29 12 -55.5t31.5 -47t58.5 -32.5t92 -12q115 0 164 32.5t49 102.5q0 63 -37 99t-153 36h-74v96h74q92 0 131 31t39 84q0 27 -8.5 49.5t-30 38.5t-57 26.5t-91.5 10.5q-55 0 -91 -12.5t-56.5 -34t-29.5 -48t-11 -53.5h-90q-2 4 -2 11q-2 6 -2 20 q0 94 62.5 157.5t219.5 63.5q147 0 221 -57t74 -168q0 -57 -24.5 -100t-85.5 -62q59 -20 95 -65t36 -123q0 -111 -82 -175.5t-240 -64.5t-222.5 63.5t-64.5 157.5z" />
<glyph unicode="&#xb4;" horiz-adv-x="1269" d="M532 1272l105 358h178l-153 -358h-130z" />
<glyph unicode="&#xb5;" d="M76 969v94q0 8 66.5 28.5t189.5 20.5h78v-557q0 -137 10 -221t45 -130t104.5 -61.5t186.5 -15.5q102 0 163.5 15.5t93 61.5t41 128t9.5 217v420h-184v94q0 8 65.5 28.5t188.5 20.5h90v-975h174v-94q0 -6 -65.5 -27.5t-188.5 -21.5h-31l-8 205q-35 -117 -118 -169.5 t-230 -52.5q-129 0 -210 31t-130 96v-368q76 0 126 -19.5t50 -27.5v-95h-514v95q0 8 51 27.5t125 19.5l-2 1233h-176z" />
<glyph unicode="&#xb6;" horiz-adv-x="1458" d="M102 1030q0 94 20.5 172t75 135.5t148.5 89t244 31.5h745v-94q0 -8 -51 -27.5t-133 -19.5v-1723h-168v1723h-174v-1723h-168v1010h-51q-150 0 -244 32t-148.5 89t-75 135t-20.5 170z" />
<glyph unicode="&#xb7;" horiz-adv-x="544" d="M143 686q0 72 25 96.5t104 24.5q80 0 104.5 -24.5t24.5 -96.5t-24.5 -97.5t-104.5 -25.5t-104.5 25.5t-24.5 97.5z" />
<glyph unicode="&#xb8;" horiz-adv-x="1269" d="M365 -360h120q2 -25 20.5 -35.5t96.5 -10.5q39 0 62.5 2.5t36 9.5t16.5 23.5t4 46.5q0 31 -4 47.5t-16.5 25.5t-36 11t-62.5 2h-143v95l116 153h138l-111 -137q84 0 135 -11.5t79 -35t37 -60t9 -90.5q0 -51 -9 -88t-37 -60.5t-79 -34.5t-135 -11q-90 0 -138 15.5 t-69.5 39t-25.5 51t-4 52.5z" />
<glyph unicode="&#xb9;" horiz-adv-x="526" d="M84 1329q0 4 15.5 17.5t44 29t70.5 28.5t93 19v-708q41 -4 68.5 -16.5t27.5 -16.5v-59h-299v59q0 4 28 16.5t71 16.5v575l-111 -16z" />
<glyph unicode="&#xba;" horiz-adv-x="1290" d="M100 1149q0 86 11.5 147.5t42 100.5t87 56t146.5 17t146.5 -17t87 -56t41 -100.5t10.5 -147.5q0 -88 -10.5 -149.5t-41 -100.5t-87 -56.5t-146.5 -17.5t-146.5 17.5t-87 56.5t-42 100.5t-11.5 149.5zM205 1149q0 -72 5 -116t24.5 -67.5t55.5 -31.5t97 -8t97 8t55.5 31.5 t24.5 67.5t5 116q0 70 -5 114t-24.5 68.5t-55 32.5t-97.5 8q-61 0 -97 -8t-55.5 -32.5t-24.5 -68.5t-5 -114z" />
<glyph unicode="&#xbb;" horiz-adv-x="886" d="M41 537v92l426 377v-156l-254 -268l254 -265v-157zM399 537v92l426 377v-156l-254 -268l254 -265v-157z" />
<glyph unicode="&#xbc;" horiz-adv-x="1390" d="M84 1329q0 4 15.5 17.5t44 29t70.5 28.5t93 19v-708q41 -4 68.5 -16.5t27.5 -16.5v-59h-299v59q0 4 28 16.5t71 16.5v575l-111 -16zM233 0h121l717 1411h-127zM670 199v110l366 482h123v-496h150v-96h-150v-109q41 -2 68.5 -15.5t27.5 -19.5v-57h-299v57q0 6 28 19.5 t71 15.5v109h-385zM782 295h273v362q-68 -92 -136.5 -181t-136.5 -181z" />
<glyph unicode="&#xbd;" horiz-adv-x="1501" d="M84 1329q0 4 15.5 17.5t44 29t70.5 28.5t93 19v-708q41 -4 68.5 -16.5t27.5 -16.5v-59h-299v59q0 4 28 16.5t71 16.5v575l-111 -16zM780 2v102q0 80 30.5 130t78 81t102.5 48t106 30q92 23 133 56.5t41 98.5q0 72 -45 110t-143 38q-55 0 -91 -12.5t-56.5 -33t-30.5 -47 t-15 -53.5h-88q0 4 -1 11.5t-1 17.5q0 47 14.5 88t48.5 71t87 46t133 16q147 0 221 -65.5t74 -186.5q0 -119 -69.5 -176t-188.5 -84q-109 -23 -169.5 -60.5t-60.5 -131.5h390q2 70 17 107.5t24 37.5h55v-239h-596zM227 0l711 1411h127l-717 -1411h-121z" />
<glyph unicode="&#xbe;" horiz-adv-x="1644" d="M123 827v31h92q2 -29 12.5 -55.5t32 -47t58 -32.5t92.5 -12q115 0 164 32.5t49 102.5q0 63 -37 99t-154 36h-74v96h74q92 0 131 31t39 84q0 27 -8 49.5t-29.5 38.5t-57.5 26.5t-91 10.5t-91 -12.5t-56.5 -34t-30 -48t-11.5 -53.5h-90q-2 4 -2 11q-2 6 -2 20 q0 94 62.5 157.5t220.5 63.5q147 0 221 -57t74 -168q0 -57 -24.5 -100t-86.5 -62q59 -20 95 -65t36 -123q0 -111 -82 -175.5t-239 -64.5q-158 0 -222.5 63.5t-64.5 157.5zM477 0h121l717 1411h-127zM924 199v110l366 482h123v-496h150v-96h-150v-109q41 -2 68.5 -15.5 t27.5 -19.5v-57h-299v57q0 6 28 19.5t71 15.5v109h-385zM1036 295h273v362q-68 -92 -136.5 -181t-136.5 -181z" />
<glyph unicode="&#xbf;" horiz-adv-x="1097" d="M61 -8q0 68 17.5 123t50.5 102t81 91t109 91t96.5 89t52.5 84t25.5 87.5t18.5 98.5h104q6 -33 15 -66q4 -29 9 -62.5t5 -62.5q0 -61 -29.5 -108t-74.5 -87t-98.5 -77t-98.5 -79t-74.5 -93t-29.5 -119q0 -45 11 -87t47 -74.5t100.5 -52t168.5 -19.5q113 0 176.5 25.5 t95 69.5t40 101.5t8.5 122.5h131q57 -248 -60.5 -361.5t-390.5 -113.5q-154 0 -251 35t-154.5 89t-79 120.5t-21.5 132.5zM436 1008q0 72 24.5 97t104.5 25t104.5 -25.5t24.5 -96.5q0 -72 -24.5 -96.5t-104.5 -24.5t-104.5 24.5t-24.5 96.5z" />
<glyph unicode="&#xc0;" horiz-adv-x="1474" d="M-10 0v94q0 6 45 23.5t119 21.5l438 1319h301l428 -1319q74 -2 119 -20.5t45 -24.5v-94h-531v94q0 6 49.5 26.5t135.5 20.5l-86 279h-633l-90 -279q86 0 136 -20.5t50 -26.5v-94h-526zM467 565h541l-236 744h-61zM529 1984h174l104 -358h-125z" />
<glyph unicode="&#xc1;" horiz-adv-x="1474" d="M-10 0v94q0 6 45 23.5t119 21.5l438 1319h301l428 -1319q74 -2 119 -20.5t45 -24.5v-94h-531v94q0 6 49.5 26.5t135.5 20.5l-86 279h-633l-90 -279q86 0 136 -20.5t50 -26.5v-94h-526zM467 565h541l-236 744h-61zM595 1626l105 358h178l-153 -358h-130z" />
<glyph unicode="&#xc2;" horiz-adv-x="1474" d="M-10 0v94q0 6 45 23.5t119 21.5l438 1319h301l428 -1319q74 -2 119 -20.5t45 -24.5v-94h-531v94q0 6 49.5 26.5t135.5 20.5l-86 279h-633l-90 -279q86 0 136 -20.5t50 -26.5v-94h-526zM467 565h541l-236 744h-61zM495 1626l131 358h221l132 -358h-127l-115 239l-115 -239 h-127z" />
<glyph unicode="&#xc3;" horiz-adv-x="1474" d="M-10 0v94q0 6 45 23.5t119 21.5l438 1319h301l428 -1319q74 -2 119 -20.5t45 -24.5v-94h-531v94q0 6 49.5 26.5t135.5 20.5l-86 279h-633l-90 -279q86 0 136 -20.5t50 -26.5v-94h-526zM467 565h541l-236 744h-61zM378 1673q10 66 32 111t52.5 71.5t67.5 37.5t76 11 q41 0 76.5 -12t68.5 -26.5t63.5 -26.5t59.5 -12q72 0 86 75h135q-18 -100 -75.5 -165.5t-143.5 -65.5q-41 0 -82 12t-77.5 26.5t-70.5 27t-61 12.5q-25 0 -48 -20.5t-34 -55.5h-125z" />
<glyph unicode="&#xc4;" horiz-adv-x="1474" d="M-10 0v94q0 6 45 23.5t119 21.5l438 1319h301l428 -1319q74 -2 119 -20.5t45 -24.5v-94h-531v94q0 6 49.5 26.5t135.5 20.5l-86 279h-633l-90 -279q86 0 136 -20.5t50 -26.5v-94h-526zM467 565h541l-236 744h-61zM452 1769q0 33 3 52.5t14.5 30.5t33 15.5t58.5 4.5 t58.5 -4.5t32.5 -15.5t14 -30.5t3 -52.5t-3 -52.5t-14 -30.5t-32.5 -14t-58.5 -3t-58.5 3t-33 14t-14.5 30.5t-3 52.5zM804 1769q0 33 3.5 52.5t14.5 30.5t32.5 15.5t58.5 4.5t58.5 -4.5t32.5 -15.5t14.5 -30.5t3.5 -52.5t-3.5 -52.5t-14.5 -30.5t-32.5 -14t-58.5 -3 t-58.5 3t-32.5 14t-14.5 30.5t-3.5 52.5z" />
<glyph unicode="&#xc5;" horiz-adv-x="1474" d="M-10 0v94q0 6 45 23.5t119 21.5l438 1319h301l428 -1319q74 -2 119 -20.5t45 -24.5v-94h-531v94q0 6 49.5 26.5t135.5 20.5l-86 279h-633l-90 -279q86 0 136 -20.5t50 -26.5v-94h-526zM467 565h541l-236 744h-61zM518 1794q0 55 8 95t31.5 64.5t66.5 36t113 11.5 t113 -11.5t66.5 -36t31.5 -64.5t8 -95t-8 -94t-31.5 -62.5t-66.5 -35t-113 -11.5t-113 11.5t-66.5 35t-31.5 62.5t-8 94zM653 1794q0 -49 14.5 -62.5t69.5 -13.5q53 0 66.5 13.5t13.5 62.5q0 51 -13.5 64.5t-66.5 13.5q-55 0 -69.5 -13.5t-14.5 -64.5z" />
<glyph unicode="&#xc6;" horiz-adv-x="1861" d="M-10 0v94q0 6 45 23.5t119 21.5l438 1319h1145v-450h-97q-4 0 -14 17t-19.5 54t-16.5 93.5t-7 134.5h-471v-480h207q0 84 19.5 134.5t27.5 50.5h92v-523h-92q-8 0 -27.5 51.5t-19.5 137.5h-207v-528h508q2 180 25.5 255.5t33.5 75.5h101v-481h-1018v94q0 8 50 27.5 t132 19.5v279h-524l-90 -279q86 0 136 -20.5t50 -26.5v-94h-526zM467 565h477v744h-233z" />
<glyph unicode="&#xc7;" horiz-adv-x="1441" d="M102 735q0 207 27 351.5t99.5 234.5t197.5 131t322 41q166 0 270 -36t166 -116q8 53 22.5 85t18.5 32h106v-475h-123q-10 106 -34.5 175t-75.5 109t-136 54t-214 14q-156 0 -248 -23.5t-141.5 -89t-64.5 -183t-15 -304.5q0 -188 14 -306t62 -183.5t141.5 -89t251.5 -23.5 q150 0 239.5 22.5t140 59.5t70 85t27.5 99h112v-10q0 -4 1 -11t1 -18q0 -82 -28.5 -151.5t-96 -120.5t-181 -81t-285.5 -30q-203 0 -330 41t-196.5 131.5t-94.5 234.5t-25 351zM482 -360h120q2 -25 20.5 -35.5t96.5 -10.5q39 0 62.5 2.5t36 9.5t16.5 23.5t4 46.5 q0 31 -4 47.5t-16.5 25.5t-36 11t-62.5 2h-143v95l116 153h138l-111 -137q84 0 135 -11.5t79 -35t37 -60t9 -90.5q0 -51 -9 -88t-37 -60.5t-79 -34.5t-135 -11q-90 0 -138 15.5t-69.5 39t-25.5 51t-4 52.5z" />
<glyph unicode="&#xc8;" horiz-adv-x="1384" d="M51 0v94q0 8 50.5 27.5t131.5 19.5v1176q-82 0 -132 19.5t-50 27.5v94h1209v-450h-97q-4 0 -14 17t-19.5 54t-16.5 93.5t-7 134.5h-705v-480h330q0 84 19.5 134.5t27.5 50.5h92v-523h-92q-8 0 -27.5 51.5t-19.5 137.5h-330v-528h742q2 180 25.5 255.5t33.5 75.5h101v-481 h-1252zM547 1984h174l104 -358h-125z" />
<glyph unicode="&#xc9;" horiz-adv-x="1384" d="M51 0v94q0 8 50.5 27.5t131.5 19.5v1176q-82 0 -132 19.5t-50 27.5v94h1209v-450h-97q-4 0 -14 17t-19.5 54t-16.5 93.5t-7 134.5h-705v-480h330q0 84 19.5 134.5t27.5 50.5h92v-523h-92q-8 0 -27.5 51.5t-19.5 137.5h-330v-528h742q2 180 25.5 255.5t33.5 75.5h101v-481 h-1252zM643 1626l105 358h178l-153 -358h-130z" />
<glyph unicode="&#xca;" horiz-adv-x="1384" d="M51 0v94q0 8 50.5 27.5t131.5 19.5v1176q-82 0 -132 19.5t-50 27.5v94h1209v-450h-97q-4 0 -14 17t-19.5 54t-16.5 93.5t-7 134.5h-705v-480h330q0 84 19.5 134.5t27.5 50.5h92v-523h-92q-8 0 -27.5 51.5t-19.5 137.5h-330v-528h742q2 180 25.5 255.5t33.5 75.5h101v-481 h-1252zM444 1626l131 358h221l132 -358h-127l-115 239l-115 -239h-127z" />
<glyph unicode="&#xcb;" horiz-adv-x="1384" d="M51 0v94q0 8 50.5 27.5t131.5 19.5v1176q-82 0 -132 19.5t-50 27.5v94h1209v-450h-97q-4 0 -14 17t-19.5 54t-16.5 93.5t-7 134.5h-705v-480h330q0 84 19.5 134.5t27.5 50.5h92v-523h-92q-8 0 -27.5 51.5t-19.5 137.5h-330v-528h742q2 180 25.5 255.5t33.5 75.5h101v-481 h-1252zM401 1769q0 33 3 52.5t14.5 30.5t33 15.5t58.5 4.5t58.5 -4.5t32.5 -15.5t14 -30.5t3 -52.5t-3 -52.5t-14 -30.5t-32.5 -14t-58.5 -3t-58.5 3t-33 14t-14.5 30.5t-3 52.5zM753 1769q0 33 3.5 52.5t14.5 30.5t32.5 15.5t58.5 4.5t58.5 -4.5t32.5 -15.5t14.5 -30.5 t3.5 -52.5t-3.5 -52.5t-14.5 -30.5t-32.5 -14t-58.5 -3t-58.5 3t-32.5 14t-14.5 30.5t-3.5 52.5z" />
<glyph unicode="&#xcc;" horiz-adv-x="636" d="M51 0v94q0 8 50.5 27.5t131.5 19.5v1176q-82 0 -132 19.5t-50 27.5v94h535v-94q0 -8 -51.5 -27.5t-133.5 -19.5v-1176q82 0 133.5 -19.5t51.5 -27.5v-94h-535zM113 1984h174l104 -358h-125z" />
<glyph unicode="&#xcd;" horiz-adv-x="636" d="M51 0v94q0 8 50.5 27.5t131.5 19.5v1176q-82 0 -132 19.5t-50 27.5v94h535v-94q0 -8 -51.5 -27.5t-133.5 -19.5v-1176q82 0 133.5 -19.5t51.5 -27.5v-94h-535zM229 1626l105 358h178l-153 -358h-130z" />
<glyph unicode="&#xce;" horiz-adv-x="636" d="M51 0v94q0 8 50.5 27.5t131.5 19.5v1176q-82 0 -132 19.5t-50 27.5v94h535v-94q0 -8 -51.5 -27.5t-133.5 -19.5v-1176q82 0 133.5 -19.5t51.5 -27.5v-94h-535zM80 1626l131 358h221l132 -358h-127l-115 239l-115 -239h-127z" />
<glyph unicode="&#xcf;" horiz-adv-x="636" d="M51 0v94q0 8 50.5 27.5t131.5 19.5v1176q-82 0 -132 19.5t-50 27.5v94h535v-94q0 -8 -51.5 -27.5t-133.5 -19.5v-1176q82 0 133.5 -19.5t51.5 -27.5v-94h-535zM37 1769q0 33 3 52.5t14.5 30.5t33 15.5t58.5 4.5t58.5 -4.5t32.5 -15.5t14 -30.5t3 -52.5t-3 -52.5 t-14 -30.5t-32.5 -14t-58.5 -3t-58.5 3t-33 14t-14.5 30.5t-3 52.5zM389 1769q0 33 3.5 52.5t14.5 30.5t32.5 15.5t58.5 4.5t58.5 -4.5t32.5 -15.5t14.5 -30.5t3.5 -52.5t-3.5 -52.5t-14.5 -30.5t-32.5 -14t-58.5 -3t-58.5 3t-32.5 14t-14.5 30.5t-3.5 52.5z" />
<glyph unicode="&#xd0;" horiz-adv-x="1501" d="M51 0v94q0 8 50.5 27.5t131.5 19.5v518h-174v138h174v520q-82 0 -132 19.5t-50 27.5v94h694q207 0 335 -40t199 -127t95.5 -224t24.5 -332q0 -199 -24.5 -338t-95.5 -227t-199 -129t-335 -41h-694zM401 154h344q160 0 255.5 22.5t144.5 85t63.5 176t14.5 297.5 q0 176 -14.5 288t-63.5 174.5t-144.5 86t-255.5 23.5h-344v-510h177v-138h-177v-505z" />
<glyph unicode="&#xd1;" horiz-adv-x="1570" d="M51 0v94q0 8 50.5 27.5t131.5 19.5v1176q-82 0 -132 19.5t-50 27.5v94h500l579 -1308h48v1167q-82 0 -128 19.5t-46 27.5v94h516v-94q0 -8 -50.5 -27.5t-132.5 -19.5v-1317h-311l-586 1309h-47v-1168q82 0 133.5 -19.5t51.5 -27.5v-94h-527zM426 1673q10 66 32 111 t52.5 71.5t67.5 37.5t76 11q41 0 76.5 -12t68.5 -26.5t63.5 -26.5t59.5 -12q72 0 86 75h135q-18 -100 -75.5 -165.5t-143.5 -65.5q-41 0 -82 12t-77.5 26.5t-70.5 27t-61 12.5q-25 0 -48 -20.5t-34 -55.5h-125z" />
<glyph unicode="&#xd2;" horiz-adv-x="1511" d="M102 735q0 207 25 351.5t95.5 234.5t198.5 131t335 41t335 -41t198.5 -131t95 -234.5t24.5 -351.5t-24.5 -351t-95 -234.5t-198.5 -131.5t-335 -41t-335 41t-198.5 131.5t-95.5 234.5t-25 351zM276 735q0 -188 14.5 -306t63.5 -184.5t144.5 -90t257.5 -23.5t257 23.5 t145 90t64.5 184.5t14.5 306t-14.5 306t-64.5 183.5t-145 89t-257 23.5t-257.5 -23.5t-144.5 -89t-63.5 -183.5t-14.5 -306zM563 1984h174l104 -358h-125z" />
<glyph unicode="&#xd3;" horiz-adv-x="1511" d="M102 735q0 207 25 351.5t95.5 234.5t198.5 131t335 41t335 -41t198.5 -131t95 -234.5t24.5 -351.5t-24.5 -351t-95 -234.5t-198.5 -131.5t-335 -41t-335 41t-198.5 131.5t-95.5 234.5t-25 351zM276 735q0 -188 14.5 -306t63.5 -184.5t144.5 -90t257.5 -23.5t257 23.5 t145 90t64.5 184.5t14.5 306t-14.5 306t-64.5 183.5t-145 89t-257 23.5t-257.5 -23.5t-144.5 -89t-63.5 -183.5t-14.5 -306zM655 1626l105 358h178l-153 -358h-130z" />
<glyph unicode="&#xd4;" horiz-adv-x="1511" d="M102 735q0 207 25 351.5t95.5 234.5t198.5 131t335 41t335 -41t198.5 -131t95 -234.5t24.5 -351.5t-24.5 -351t-95 -234.5t-198.5 -131.5t-335 -41t-335 41t-198.5 131.5t-95.5 234.5t-25 351zM276 735q0 -188 14.5 -306t63.5 -184.5t144.5 -90t257.5 -23.5t257 23.5 t145 90t64.5 184.5t14.5 306t-14.5 306t-64.5 183.5t-145 89t-257 23.5t-257.5 -23.5t-144.5 -89t-63.5 -183.5t-14.5 -306zM514 1626l131 358h221l132 -358h-127l-115 239l-115 -239h-127z" />
<glyph unicode="&#xd5;" horiz-adv-x="1511" d="M102 735q0 207 25 351.5t95.5 234.5t198.5 131t335 41t335 -41t198.5 -131t95 -234.5t24.5 -351.5t-24.5 -351t-95 -234.5t-198.5 -131.5t-335 -41t-335 41t-198.5 131.5t-95.5 234.5t-25 351zM276 735q0 -188 14.5 -306t63.5 -184.5t144.5 -90t257.5 -23.5t257 23.5 t145 90t64.5 184.5t14.5 306t-14.5 306t-64.5 183.5t-145 89t-257 23.5t-257.5 -23.5t-144.5 -89t-63.5 -183.5t-14.5 -306zM397 1673q10 66 32 111t52.5 71.5t67.5 37.5t76 11q41 0 76.5 -12t68.5 -26.5t63.5 -26.5t59.5 -12q72 0 86 75h135q-18 -100 -75.5 -165.5 t-143.5 -65.5q-41 0 -82 12t-77.5 26.5t-70.5 27t-61 12.5q-25 0 -48 -20.5t-34 -55.5h-125z" />
<glyph unicode="&#xd6;" horiz-adv-x="1511" d="M102 735q0 207 25 351.5t95.5 234.5t198.5 131t335 41t335 -41t198.5 -131t95 -234.5t24.5 -351.5t-24.5 -351t-95 -234.5t-198.5 -131.5t-335 -41t-335 41t-198.5 131.5t-95.5 234.5t-25 351zM276 735q0 -188 14.5 -306t63.5 -184.5t144.5 -90t257.5 -23.5t257 23.5 t145 90t64.5 184.5t14.5 306t-14.5 306t-64.5 183.5t-145 89t-257 23.5t-257.5 -23.5t-144.5 -89t-63.5 -183.5t-14.5 -306zM471 1769q0 33 3 52.5t14.5 30.5t33 15.5t58.5 4.5t58.5 -4.5t32.5 -15.5t14 -30.5t3 -52.5t-3 -52.5t-14 -30.5t-32.5 -14t-58.5 -3t-58.5 3 t-33 14t-14.5 30.5t-3 52.5zM823 1769q0 33 3.5 52.5t14.5 30.5t32.5 15.5t58.5 4.5t58.5 -4.5t32.5 -15.5t14.5 -30.5t3.5 -52.5t-3.5 -52.5t-14.5 -30.5t-32.5 -14t-58.5 -3t-58.5 3t-32.5 14t-14.5 30.5t-3.5 52.5z" />
<glyph unicode="&#xd7;" horiz-adv-x="823" d="M72 418l245 235l-245 236l108 106l246 -237l248 237l106 -102l-248 -238l250 -237l-108 -107l-250 240l-246 -236z" />
<glyph unicode="&#xd8;" horiz-adv-x="1511" d="M102 735q0 207 25 351.5t95.5 234.5t198.5 131t335 41q133 0 232 -16.5t171 -51.5l64 93l100 -70l-63 -92q90 -90 119.5 -240.5t29.5 -380.5q0 -207 -24.5 -351t-95 -234.5t-198.5 -131.5t-335 -41q-262 0 -402 66l-73 -106l-101 71l74 107q-90 88 -121 239.5t-31 380.5z M276 735q0 -184 12.5 -300t59.5 -183l721 1042q-53 23 -130 33t-183 10q-162 0 -257.5 -23.5t-144.5 -89t-63.5 -183.5t-14.5 -306zM444 174q53 -25 129 -34t183 -9q162 0 257 23.5t145 90t64.5 184.5t14.5 306q0 184 -13.5 299t-60.5 183z" />
<glyph unicode="&#xd9;" horiz-adv-x="1626" d="M51 1364v94h578v-94q0 -8 -50.5 -27.5t-132.5 -19.5h-43v-742q0 -121 16.5 -204.5t60.5 -137t125 -77t210 -23.5t210 23.5t125 77t60.5 137.5t16.5 204v742h-43q-82 0 -132.5 19.5t-50.5 27.5v94h574v-94q0 -8 -50 -27.5t-132 -19.5v-742q0 -137 -23.5 -247.5t-87 -188.5 t-177.5 -120t-292 -42t-291.5 42t-177 120t-87.5 188.5t-24 247.5v742q-82 0 -132 19.5t-50 27.5zM625 1984h174l104 -358h-125z" />
<glyph unicode="&#xda;" horiz-adv-x="1626" d="M51 1364v94h578v-94q0 -8 -50.5 -27.5t-132.5 -19.5h-43v-742q0 -121 16.5 -204.5t60.5 -137t125 -77t210 -23.5t210 23.5t125 77t60.5 137.5t16.5 204v742h-43q-82 0 -132.5 19.5t-50.5 27.5v94h574v-94q0 -8 -50 -27.5t-132 -19.5v-742q0 -137 -23.5 -247.5t-87 -188.5 t-177.5 -120t-292 -42t-291.5 42t-177 120t-87.5 188.5t-24 247.5v742q-82 0 -132 19.5t-50 27.5zM720 1626l105 358h178l-153 -358h-130z" />
<glyph unicode="&#xdb;" horiz-adv-x="1626" d="M51 1364v94h578v-94q0 -8 -50.5 -27.5t-132.5 -19.5h-43v-742q0 -121 16.5 -204.5t60.5 -137t125 -77t210 -23.5t210 23.5t125 77t60.5 137.5t16.5 204v742h-43q-82 0 -132.5 19.5t-50.5 27.5v94h574v-94q0 -8 -50 -27.5t-132 -19.5v-742q0 -137 -23.5 -247.5t-87 -188.5 t-177.5 -120t-292 -42t-291.5 42t-177 120t-87.5 188.5t-24 247.5v742q-82 0 -132 19.5t-50 27.5zM571 1626l131 358h221l132 -358h-127l-115 239l-115 -239h-127z" />
<glyph unicode="&#xdc;" horiz-adv-x="1626" d="M51 1364v94h578v-94q0 -8 -50.5 -27.5t-132.5 -19.5h-43v-742q0 -121 16.5 -204.5t60.5 -137t125 -77t210 -23.5t210 23.5t125 77t60.5 137.5t16.5 204v742h-43q-82 0 -132.5 19.5t-50.5 27.5v94h574v-94q0 -8 -50 -27.5t-132 -19.5v-742q0 -137 -23.5 -247.5t-87 -188.5 t-177.5 -120t-292 -42t-291.5 42t-177 120t-87.5 188.5t-24 247.5v742q-82 0 -132 19.5t-50 27.5zM528 1769q0 33 3 52.5t14.5 30.5t33 15.5t58.5 4.5t58.5 -4.5t32.5 -15.5t14 -30.5t3 -52.5t-3 -52.5t-14 -30.5t-32.5 -14t-58.5 -3t-58.5 3t-33 14t-14.5 30.5t-3 52.5z M880 1769q0 33 3.5 52.5t14.5 30.5t32.5 15.5t58.5 4.5t58.5 -4.5t32.5 -15.5t14.5 -30.5t3.5 -52.5t-3.5 -52.5t-14.5 -30.5t-32.5 -14t-58.5 -3t-58.5 3t-32.5 14t-14.5 30.5t-3.5 52.5z" />
<glyph unicode="&#xdd;" horiz-adv-x="1468" d="M-10 1364v94h534v-94q0 -8 -42 -24.5t-109 -20.5l364 -635l363 633q-72 4 -114 21.5t-42 25.5v94h535v-94q0 -8 -51.5 -27.5t-133.5 -19.5l-477 -813v-363q113 0 168 -19.5t55 -27.5v-94h-614v94q0 8 55.5 27.5t167.5 19.5v371l-477 805q-82 0 -132 19.5t-50 27.5z M649 1626l105 358h178l-153 -358h-130z" />
<glyph unicode="&#xde;" horiz-adv-x="1402" d="M51 0v94q0 8 50.5 27.5t131.5 19.5l3 25v1149q-82 0 -132.5 19.5t-50.5 27.5v94h350v-252h402q166 0 272.5 -35.5t168 -99t84 -152t22.5 -192.5t-22.5 -191.5t-84 -151t-168 -99t-272.5 -35.5h-402v-248h-352zM403 399h402q121 0 193.5 18.5t112.5 58.5t52.5 101.5 t12.5 147.5t-12.5 148.5t-52.5 102.5t-112.5 58.5t-193.5 18.5h-402v-654z" />
<glyph unicode="&#xdf;" horiz-adv-x="1525" d="M72 0v94q0 8 51 27.5t125 19.5v1020q0 135 17.5 229.5t68.5 155t144 87t243 26.5q125 0 212 -20.5t140 -62.5t78 -106.5t25 -154.5q0 -92 -26 -151.5t-68 -98.5t-98 -63.5t-118 -47.5q-59 -23 -75.5 -58.5t-16.5 -86.5q0 -37 7 -66.5t33 -52t74 -37t128 -18.5 q121 -10 196.5 -40t117.5 -74t57.5 -99t15.5 -113q0 -66 -18.5 -125t-71.5 -105t-148.5 -74t-246.5 -28q-106 0 -193.5 20.5t-142.5 65.5v164q37 -55 115.5 -79.5t220.5 -24.5q104 0 169.5 12t100.5 36t47 58.5t12 79.5q0 39 -9 70t-34.5 54.5t-71 37.5t-116.5 21 q-123 8 -201 37.5t-122 72.5t-59.5 97.5t-15.5 109.5q0 119 54.5 186.5t144.5 100.5q39 14 76 27.5t65.5 36t46 58t17.5 97.5q0 61 -14.5 99t-50 59.5t-93 28.5t-143.5 7q-109 0 -171.5 -13t-94 -50t-40.5 -105.5t-9 -179.5h2l-2 -1161h-334z" />
<glyph unicode="&#xe0;" horiz-adv-x="1284" d="M102 326q0 70 17.5 129t69 104t146.5 70.5t253 25.5h327q-2 100 -14 164t-46 100.5t-94.5 50t-156.5 13.5q-86 0 -139 -9t-85 -30.5t-45 -56.5t-20 -84h-133v301h117q8 -16 25 -72q27 41 96 71t184 30q147 0 240.5 -32t144.5 -100.5t69.5 -179t18.5 -266.5v-418h176v-94 q0 -6 -66.5 -27.5t-189.5 -21.5h-30l-6 139q-39 -70 -126 -113t-247 -43q-152 0 -247 28t-148.5 76t-72 110.5t-18.5 134.5zM262 326q0 -51 9.5 -88t43 -61.5t98 -37t175.5 -12.5q115 0 181.5 12.5t100 37t43 61t9.5 88.5v196h-334q-106 0 -170 -13t-98.5 -39t-46 -62.5 t-11.5 -81.5zM410 1630h174l104 -358h-125z" />
<glyph unicode="&#xe1;" horiz-adv-x="1284" d="M102 326q0 70 17.5 129t69 104t146.5 70.5t253 25.5h327q-2 100 -14 164t-46 100.5t-94.5 50t-156.5 13.5q-86 0 -139 -9t-85 -30.5t-45 -56.5t-20 -84h-133v301h117q8 -16 25 -72q27 41 96 71t184 30q147 0 240.5 -32t144.5 -100.5t69.5 -179t18.5 -266.5v-418h176v-94 q0 -6 -66.5 -27.5t-189.5 -21.5h-30l-6 139q-39 -70 -126 -113t-247 -43q-152 0 -247 28t-148.5 76t-72 110.5t-18.5 134.5zM262 326q0 -51 9.5 -88t43 -61.5t98 -37t175.5 -12.5q115 0 181.5 12.5t100 37t43 61t9.5 88.5v196h-334q-106 0 -170 -13t-98.5 -39t-46 -62.5 t-11.5 -81.5zM548 1272l105 358h178l-153 -358h-130z" />
<glyph unicode="&#xe2;" horiz-adv-x="1284" d="M102 326q0 70 17.5 129t69 104t146.5 70.5t253 25.5h327q-2 100 -14 164t-46 100.5t-94.5 50t-156.5 13.5q-86 0 -139 -9t-85 -30.5t-45 -56.5t-20 -84h-133v301h117q8 -16 25 -72q27 41 96 71t184 30q147 0 240.5 -32t144.5 -100.5t69.5 -179t18.5 -266.5v-418h176v-94 q0 -6 -66.5 -27.5t-189.5 -21.5h-30l-6 139q-39 -70 -126 -113t-247 -43q-152 0 -247 28t-148.5 76t-72 110.5t-18.5 134.5zM262 326q0 -51 9.5 -88t43 -61.5t98 -37t175.5 -12.5q115 0 181.5 12.5t100 37t43 61t9.5 88.5v196h-334q-106 0 -170 -13t-98.5 -39t-46 -62.5 t-11.5 -81.5zM375 1272l131 358h221l132 -358h-127l-115 239l-115 -239h-127z" />
<glyph unicode="&#xe3;" horiz-adv-x="1284" d="M102 326q0 70 17.5 129t69 104t146.5 70.5t253 25.5h327q-2 100 -14 164t-46 100.5t-94.5 50t-156.5 13.5q-86 0 -139 -9t-85 -30.5t-45 -56.5t-20 -84h-133v301h117q8 -16 25 -72q27 41 96 71t184 30q147 0 240.5 -32t144.5 -100.5t69.5 -179t18.5 -266.5v-418h176v-94 q0 -6 -66.5 -27.5t-189.5 -21.5h-30l-6 139q-39 -70 -126 -113t-247 -43q-152 0 -247 28t-148.5 76t-72 110.5t-18.5 134.5zM262 326q0 -51 9.5 -88t43 -61.5t98 -37t175.5 -12.5q115 0 181.5 12.5t100 37t43 61t9.5 88.5v196h-334q-106 0 -170 -13t-98.5 -39t-46 -62.5 t-11.5 -81.5zM282 1321q10 66 32 111t52.5 71.5t67.5 37.5t76 11q41 0 76.5 -12t68.5 -26.5t63.5 -26.5t59.5 -12q72 0 86 75h135q-18 -100 -75.5 -165.5t-143.5 -65.5q-41 0 -82 12t-77.5 26.5t-70.5 27t-61 12.5q-25 0 -48 -20.5t-34 -55.5h-125z" />
<glyph unicode="&#xe4;" horiz-adv-x="1284" d="M102 326q0 70 17.5 129t69 104t146.5 70.5t253 25.5h327q-2 100 -14 164t-46 100.5t-94.5 50t-156.5 13.5q-86 0 -139 -9t-85 -30.5t-45 -56.5t-20 -84h-133v301h117q8 -16 25 -72q27 41 96 71t184 30q147 0 240.5 -32t144.5 -100.5t69.5 -179t18.5 -266.5v-418h176v-94 q0 -6 -66.5 -27.5t-189.5 -21.5h-30l-6 139q-39 -70 -126 -113t-247 -43q-152 0 -247 28t-148.5 76t-72 110.5t-18.5 134.5zM262 326q0 -51 9.5 -88t43 -61.5t98 -37t175.5 -12.5q115 0 181.5 12.5t100 37t43 61t9.5 88.5v196h-334q-106 0 -170 -13t-98.5 -39t-46 -62.5 t-11.5 -81.5zM348 1415q0 33 3 52.5t14.5 30.5t33 15.5t58.5 4.5t58.5 -4.5t32.5 -15.5t14 -30.5t3 -52.5t-3 -52.5t-14 -30.5t-32.5 -14t-58.5 -3t-58.5 3t-33 14t-14.5 30.5t-3 52.5zM700 1415q0 33 3.5 52.5t14.5 30.5t32.5 15.5t58.5 4.5t58.5 -4.5t32.5 -15.5 t14.5 -30.5t3.5 -52.5t-3.5 -52.5t-14.5 -30.5t-32.5 -14t-58.5 -3t-58.5 3t-32.5 14t-14.5 30.5t-3.5 52.5z" />
<glyph unicode="&#xe5;" horiz-adv-x="1284" d="M102 326q0 70 17.5 129t69 104t146.5 70.5t253 25.5h327q-2 100 -14 164t-46 100.5t-94.5 50t-156.5 13.5q-86 0 -139 -9t-85 -30.5t-45 -56.5t-20 -84h-133v301h117q8 -16 25 -72q27 41 96 71t184 30q147 0 240.5 -32t144.5 -100.5t69.5 -179t18.5 -266.5v-418h176v-94 q0 -6 -66.5 -27.5t-189.5 -21.5h-30l-6 139q-39 -70 -126 -113t-247 -43q-152 0 -247 28t-148.5 76t-72 110.5t-18.5 134.5zM262 326q0 -51 9.5 -88t43 -61.5t98 -37t175.5 -12.5q115 0 181.5 12.5t100 37t43 61t9.5 88.5v196h-334q-106 0 -170 -13t-98.5 -39t-46 -62.5 t-11.5 -81.5zM414 1440q0 55 8 95t31.5 64.5t66.5 36t113 11.5t113 -11.5t66.5 -36t31.5 -64.5t8 -95t-8 -94t-31.5 -62.5t-66.5 -35t-113 -11.5t-113 11.5t-66.5 35t-31.5 62.5t-8 94zM549 1440q0 -49 14.5 -62.5t69.5 -13.5q53 0 66.5 13.5t13.5 62.5q0 51 -13.5 64.5 t-66.5 13.5q-55 0 -69.5 -13.5t-14.5 -64.5z" />
<glyph unicode="&#xe6;" horiz-adv-x="2009" d="M102 326q0 70 17.5 130t69 105t146.5 71.5t253 26.5h327q-2 100 -14 164t-46 98.5t-94.5 48t-156.5 13.5q-86 0 -139 -9t-85 -30.5t-45 -56.5t-20 -84h-133v301h117q8 -16 25 -72q27 41 96 71t184 30q80 0 141.5 -8.5t109.5 -30t84 -59.5t65 -99q27 61 60.5 99t80.5 59.5 t110.5 30t147.5 8.5q150 0 243 -32t144 -100.5t69.5 -179t18.5 -266.5v-33h-799q0 -127 9.5 -203.5t43 -119.5t101 -57.5t184.5 -14.5q113 0 176.5 14.5t95 40t43 60t19.5 77.5h102v-14q0 -53 -8 -110.5t-49 -105.5t-130 -80t-249 -32q-98 0 -164.5 11.5t-112.5 36t-76 61.5 t-54 88q-43 -102 -152.5 -149.5t-269.5 -47.5q-152 0 -247 28t-148.5 76t-72 110.5t-18.5 134.5zM262 326q0 -51 9.5 -88t43 -61.5t98 -37t175.5 -12.5q115 0 181.5 12.5t100 37t43 61t9.5 88.5v196h-334q-106 0 -170 -13t-98.5 -39t-46 -62.5t-11.5 -81.5zM1083 657h639 q-4 102 -18 167t-48 101t-94.5 49t-158.5 13q-104 0 -165.5 -13t-94.5 -49t-44.5 -101t-15.5 -167z" />
<glyph unicode="&#xe7;" horiz-adv-x="1247" d="M133 555q0 156 19.5 266.5t75 179t154.5 100.5t259 32q119 0 198 -26t128 -79q12 57 24 76h103v-373h-113q-4 70 -16.5 118t-48 77.5t-100 43t-175.5 13.5q-119 0 -188.5 -16.5t-104.5 -62.5t-45 -130t-10 -219q0 -137 10 -221t45 -130t104.5 -61.5t188.5 -15.5 q117 0 183.5 14.5t101.5 40t46 60t19 77.5h103q0 -53 -7.5 -113.5t-49.5 -110.5t-134 -84t-262 -34q-160 0 -259 32t-154.5 100.5t-75 178t-19.5 267.5zM371 -360h120q2 -25 20.5 -35.5t96.5 -10.5q39 0 62.5 2.5t36 9.5t16.5 23.5t4 46.5q0 31 -4 47.5t-16.5 25.5t-36 11 t-62.5 2h-143v95l116 153h138l-111 -137q84 0 135 -11.5t79 -35t37 -60t9 -90.5q0 -51 -9 -88t-37 -60.5t-79 -34.5t-135 -11q-90 0 -138 15.5t-69.5 39t-25.5 51t-4 52.5z" />
<glyph unicode="&#xe8;" horiz-adv-x="1253" d="M133 555q0 156 19.5 266.5t74 179t151.5 100.5t255 32q150 0 245 -33t149 -96.5t74.5 -153.5t20.5 -203q0 -25 -1 -48.5t-1 -39.5q-2 -20 -2 -37h-833q0 -127 13 -203.5t51 -119.5t109.5 -57.5t188.5 -14.5q113 0 179.5 14.5t103.5 40t51 60t23 77.5h102 q0 -53 -9.5 -113.5t-53.5 -110.5t-137 -84t-259 -34q-164 0 -264 32t-155.5 100.5t-75 178t-19.5 267.5zM291 657h680q0 100 -16.5 164t-55.5 100.5t-103.5 51t-162.5 14.5q-104 0 -169 -13t-101.5 -49t-52 -101t-19.5 -167zM492 1630h174l104 -358h-125z" />
<glyph unicode="&#xe9;" horiz-adv-x="1253" d="M133 555q0 156 19.5 266.5t74 179t151.5 100.5t255 32q150 0 245 -33t149 -96.5t74.5 -153.5t20.5 -203q0 -25 -1 -48.5t-1 -39.5q-2 -20 -2 -37h-833q0 -127 13 -203.5t51 -119.5t109.5 -57.5t188.5 -14.5q113 0 179.5 14.5t103.5 40t51 60t23 77.5h102 q0 -53 -9.5 -113.5t-53.5 -110.5t-137 -84t-259 -34q-164 0 -264 32t-155.5 100.5t-75 178t-19.5 267.5zM291 657h680q0 100 -16.5 164t-55.5 100.5t-103.5 51t-162.5 14.5q-104 0 -169 -13t-101.5 -49t-52 -101t-19.5 -167zM493 1272l105 358h178l-153 -358h-130z" />
<glyph unicode="&#xea;" horiz-adv-x="1253" d="M133 555q0 156 19.5 266.5t74 179t151.5 100.5t255 32q150 0 245 -33t149 -96.5t74.5 -153.5t20.5 -203q0 -25 -1 -48.5t-1 -39.5q-2 -20 -2 -37h-833q0 -127 13 -203.5t51 -119.5t109.5 -57.5t188.5 -14.5q113 0 179.5 14.5t103.5 40t51 60t23 77.5h102 q0 -53 -9.5 -113.5t-53.5 -110.5t-137 -84t-259 -34q-164 0 -264 32t-155.5 100.5t-75 178t-19.5 267.5zM291 657h680q0 100 -16.5 164t-55.5 100.5t-103.5 51t-162.5 14.5q-104 0 -169 -13t-101.5 -49t-52 -101t-19.5 -167zM393 1272l131 358h221l132 -358h-127l-115 239 l-115 -239h-127z" />
<glyph unicode="&#xeb;" horiz-adv-x="1253" d="M133 555q0 156 19.5 266.5t74 179t151.5 100.5t255 32q150 0 245 -33t149 -96.5t74.5 -153.5t20.5 -203q0 -25 -1 -48.5t-1 -39.5q-2 -20 -2 -37h-833q0 -127 13 -203.5t51 -119.5t109.5 -57.5t188.5 -14.5q113 0 179.5 14.5t103.5 40t51 60t23 77.5h102 q0 -53 -9.5 -113.5t-53.5 -110.5t-137 -84t-259 -34q-164 0 -264 32t-155.5 100.5t-75 178t-19.5 267.5zM291 657h680q0 100 -16.5 164t-55.5 100.5t-103.5 51t-162.5 14.5q-104 0 -169 -13t-101.5 -49t-52 -101t-19.5 -167zM350 1415q0 33 3 52.5t14.5 30.5t33 15.5 t58.5 4.5t58.5 -4.5t32.5 -15.5t14 -30.5t3 -52.5t-3 -52.5t-14 -30.5t-32.5 -14t-58.5 -3t-58.5 3t-33 14t-14.5 30.5t-3 52.5zM702 1415q0 33 3.5 52.5t14.5 30.5t32.5 15.5t58.5 4.5t58.5 -4.5t32.5 -15.5t14.5 -30.5t3.5 -52.5t-3.5 -52.5t-14.5 -30.5t-32.5 -14 t-58.5 -3t-58.5 3t-32.5 14t-14.5 30.5t-3.5 52.5z" />
<glyph unicode="&#xec;" horiz-adv-x="612" d="M61 0v94q0 8 51.5 27.5t125.5 19.5v828h-177v94q0 8 67 28.5t189 20.5h78v-971q76 0 126 -19.5t50 -27.5v-94h-510zM115 1630h174l104 -358h-125z" />
<glyph unicode="&#xed;" horiz-adv-x="612" d="M61 0v94q0 8 51.5 27.5t125.5 19.5v828h-177v94q0 8 67 28.5t189 20.5h78v-971q76 0 126 -19.5t50 -27.5v-94h-510zM223 1272l105 358h178l-153 -358h-130z" />
<glyph unicode="&#xee;" horiz-adv-x="612" d="M61 0v94q0 8 51.5 27.5t125.5 19.5v828h-177v94q0 8 67 28.5t189 20.5h78v-971q76 0 126 -19.5t50 -27.5v-94h-510zM71 1272l131 358h221l132 -358h-127l-115 239l-115 -239h-127z" />
<glyph unicode="&#xef;" horiz-adv-x="612" d="M31 1415q0 63 17.5 83t88.5 20q72 0 89.5 -19.5t17.5 -83.5q0 -31 -3 -50t-14.5 -30.5t-32 -14.5t-57.5 -3t-57.5 3t-31.5 14.5t-14 30.5t-3 50zM61 0v94q0 8 51.5 27.5t125.5 19.5v828h-177v94q0 8 67 28.5t189 20.5h78v-971q76 0 126 -19.5t50 -27.5v-94h-510z M358 1415q0 63 17.5 83t89.5 20t89 -19.5t17 -83.5q0 -31 -3 -50t-14 -30.5t-31.5 -14.5t-57.5 -3t-57.5 3t-31.5 14.5t-14.5 30.5t-3.5 50z" />
<glyph unicode="&#xf0;" horiz-adv-x="1292" d="M123 465q0 96 20.5 187t75.5 162t151.5 114t247.5 43q162 0 253.5 -40t144.5 -140q-31 182 -96.5 296.5t-151.5 188.5l-86 -133l-107 65l91 142q-47 29 -95.5 52t-95.5 46l49 104q57 -16 111.5 -38.5t103.5 -51.5l86 133l111 -63l-92 -139q137 -111 221 -288t84 -435 q0 -190 -20.5 -322.5t-79 -213.5t-162 -117.5t-269.5 -36.5q-154 0 -251 39.5t-151 107.5t-73.5 156t-19.5 182zM274 475q0 -80 12.5 -144.5t49.5 -110.5t104.5 -70.5t177.5 -24.5q109 0 179.5 25.5t111.5 71.5t56.5 108.5t15.5 136.5q0 80 -15.5 147.5t-55.5 115.5 t-110.5 74.5t-181.5 26.5t-178 -25.5t-104 -71.5t-49.5 -111.5t-12.5 -147.5z" />
<glyph unicode="&#xf1;" horiz-adv-x="1400" d="M61 0v94q0 8 51.5 27.5t125.5 19.5v420q0 78 -2.5 151.5t-6.5 131.5q-4 68 -6 125h-162v94q0 8 67 28.5t189 20.5h29l8 -205q37 119 122 172.5t241 53.5q150 0 243 -32t145 -100.5t70.5 -177t18.5 -262.5v-420q74 0 125 -19.5t51 -27.5v-94h-493v94q0 8 42 27.5t115 19.5 v420q0 135 -9 217t-42 128t-96.5 61.5t-169.5 15.5q-109 0 -172.5 -15.5t-97 -61.5t-43 -129t-9.5 -216v-420q76 0 126 -19.5t50 -27.5v-94h-510zM342 1321q10 66 32 111t52.5 71.5t67.5 37.5t76 11q41 0 76.5 -12t68.5 -26.5t63.5 -26.5t59.5 -12q72 0 86 75h135 q-18 -100 -75.5 -165.5t-143.5 -65.5q-41 0 -82 12t-77.5 26.5t-70.5 27t-61 12.5q-25 0 -48 -20.5t-34 -55.5h-125z" />
<glyph unicode="&#xf2;" horiz-adv-x="1290" d="M133 555q0 156 19.5 266.5t75 179t155.5 100.5t262 32t262.5 -32t155.5 -100.5t74.5 -179t19.5 -266.5q0 -158 -19.5 -267.5t-74.5 -178t-155.5 -100.5t-262.5 -32t-262 32t-155.5 100.5t-75 178t-19.5 267.5zM291 555q0 -137 10 -222t46 -131t106.5 -61.5t191.5 -15.5 t191.5 15.5t106.5 61.5t46 131t10 222t-10 221t-46 130t-106.5 62.5t-191.5 16.5t-191.5 -16.5t-106.5 -62.5t-46 -130t-10 -221zM443 1630h174l104 -358h-125z" />
<glyph unicode="&#xf3;" horiz-adv-x="1290" d="M133 555q0 156 19.5 266.5t75 179t155.5 100.5t262 32t262.5 -32t155.5 -100.5t74.5 -179t19.5 -266.5q0 -158 -19.5 -267.5t-74.5 -178t-155.5 -100.5t-262.5 -32t-262 32t-155.5 100.5t-75 178t-19.5 267.5zM291 555q0 -137 10 -222t46 -131t106.5 -61.5t191.5 -15.5 t191.5 15.5t106.5 61.5t46 131t10 222t-10 221t-46 130t-106.5 62.5t-191.5 16.5t-191.5 -16.5t-106.5 -62.5t-46 -130t-10 -221zM577 1272l105 358h178l-153 -358h-130z" />
<glyph unicode="&#xf4;" horiz-adv-x="1290" d="M133 555q0 156 19.5 266.5t75 179t155.5 100.5t262 32t262.5 -32t155.5 -100.5t74.5 -179t19.5 -266.5q0 -158 -19.5 -267.5t-74.5 -178t-155.5 -100.5t-262.5 -32t-262 32t-155.5 100.5t-75 178t-19.5 267.5zM291 555q0 -137 10 -222t46 -131t106.5 -61.5t191.5 -15.5 t191.5 15.5t106.5 61.5t46 131t10 222t-10 221t-46 130t-106.5 62.5t-191.5 16.5t-191.5 -16.5t-106.5 -62.5t-46 -130t-10 -221zM403 1272l131 358h221l132 -358h-127l-115 239l-115 -239h-127z" />
<glyph unicode="&#xf5;" horiz-adv-x="1290" d="M133 555q0 156 19.5 266.5t75 179t155.5 100.5t262 32t262.5 -32t155.5 -100.5t74.5 -179t19.5 -266.5q0 -158 -19.5 -267.5t-74.5 -178t-155.5 -100.5t-262.5 -32t-262 32t-155.5 100.5t-75 178t-19.5 267.5zM291 555q0 -137 10 -222t46 -131t106.5 -61.5t191.5 -15.5 t191.5 15.5t106.5 61.5t46 131t10 222t-10 221t-46 130t-106.5 62.5t-191.5 16.5t-191.5 -16.5t-106.5 -62.5t-46 -130t-10 -221zM286 1321q10 66 32 111t52.5 71.5t67.5 37.5t76 11q41 0 76.5 -12t68.5 -26.5t63.5 -26.5t59.5 -12q72 0 86 75h135q-18 -100 -75.5 -165.5 t-143.5 -65.5q-41 0 -82 12t-77.5 26.5t-70.5 27t-61 12.5q-25 0 -48 -20.5t-34 -55.5h-125z" />
<glyph unicode="&#xf6;" horiz-adv-x="1290" d="M133 555q0 156 19.5 266.5t75 179t155.5 100.5t262 32t262.5 -32t155.5 -100.5t74.5 -179t19.5 -266.5q0 -158 -19.5 -267.5t-74.5 -178t-155.5 -100.5t-262.5 -32t-262 32t-155.5 100.5t-75 178t-19.5 267.5zM291 555q0 -137 10 -222t46 -131t106.5 -61.5t191.5 -15.5 t191.5 15.5t106.5 61.5t46 131t10 222t-10 221t-46 130t-106.5 62.5t-191.5 16.5t-191.5 -16.5t-106.5 -62.5t-46 -130t-10 -221zM360 1415q0 33 3 52.5t14.5 30.5t33 15.5t58.5 4.5t58.5 -4.5t32.5 -15.5t14 -30.5t3 -52.5t-3 -52.5t-14 -30.5t-32.5 -14t-58.5 -3t-58.5 3 t-33 14t-14.5 30.5t-3 52.5zM712 1415q0 33 3.5 52.5t14.5 30.5t32.5 15.5t58.5 4.5t58.5 -4.5t32.5 -15.5t14.5 -30.5t3.5 -52.5t-3.5 -52.5t-14.5 -30.5t-32.5 -14t-58.5 -3t-58.5 3t-32.5 14t-14.5 30.5t-3.5 52.5z" />
<glyph unicode="&#xf7;" horiz-adv-x="823" d="M82 584v137h659v-137h-659zM305 379q0 57 19.5 76.5t83.5 19.5q66 0 85 -19.5t19 -76.5t-19.5 -77.5t-84.5 -20.5q-63 0 -83 20.5t-20 77.5zM305 932q0 57 19.5 76.5t83.5 19.5q66 0 85 -19.5t19 -76.5q0 -59 -19.5 -78.5t-84.5 -19.5q-63 0 -83 19.5t-20 78.5z" />
<glyph unicode="&#xf8;" horiz-adv-x="1290" d="M133 555q0 156 19.5 266.5t75 179t155.5 100.5t262 32q188 0 297 -46l55 80l101 -69l-54 -78q66 -68 89.5 -181.5t23.5 -283.5q0 -158 -19.5 -267.5t-74.5 -178t-155.5 -100.5t-262.5 -32q-182 0 -293 41l-63 -90l-101 72l60 86q-70 68 -92.5 181.5t-22.5 287.5zM291 555 q0 -129 8 -211t39 -129l518 748q-39 12 -90 17t-121 5q-121 0 -191.5 -16.5t-106.5 -62.5t-46 -130t-10 -221zM438 143q39 -10 89.5 -14t117.5 -4q121 0 191.5 15.5t106.5 61.5t46 131t10 222q0 125 -8 206t-37 128z" />
<glyph unicode="&#xf9;" horiz-adv-x="1363" d="M41 969v94q0 8 66.5 28.5t189.5 20.5h78v-563q0 -135 9 -217t41 -128t93.5 -61.5t163.5 -15.5t163.5 15.5t93.5 61.5t41 128t9 217v420h-184v94q0 8 65.5 28.5t188.5 20.5h90v-975h174v-94q0 -6 -65.5 -27.5t-188.5 -21.5h-31l-8 205q-35 -117 -118 -169.5t-230 -52.5 t-237.5 30t-141.5 97.5t-68.5 177t-17.5 267.5v420h-176zM441 1630h174l104 -358h-125z" />
<glyph unicode="&#xfa;" horiz-adv-x="1363" d="M41 969v94q0 8 66.5 28.5t189.5 20.5h78v-563q0 -135 9 -217t41 -128t93.5 -61.5t163.5 -15.5t163.5 15.5t93.5 61.5t41 128t9 217v420h-184v94q0 8 65.5 28.5t188.5 20.5h90v-975h174v-94q0 -6 -65.5 -27.5t-188.5 -21.5h-31l-8 205q-35 -117 -118 -169.5t-230 -52.5 t-237.5 30t-141.5 97.5t-68.5 177t-17.5 267.5v420h-176zM565 1272l105 358h178l-153 -358h-130z" />
<glyph unicode="&#xfb;" horiz-adv-x="1363" d="M41 969v94q0 8 66.5 28.5t189.5 20.5h78v-563q0 -135 9 -217t41 -128t93.5 -61.5t163.5 -15.5t163.5 15.5t93.5 61.5t41 128t9 217v420h-184v94q0 8 65.5 28.5t188.5 20.5h90v-975h174v-94q0 -6 -65.5 -27.5t-188.5 -21.5h-31l-8 205q-35 -117 -118 -169.5t-230 -52.5 t-237.5 30t-141.5 97.5t-68.5 177t-17.5 267.5v420h-176zM389 1272l131 358h221l132 -358h-127l-115 239l-115 -239h-127z" />
<glyph unicode="&#xfc;" horiz-adv-x="1363" d="M41 969v94q0 8 66.5 28.5t189.5 20.5h78v-563q0 -135 9 -217t41 -128t93.5 -61.5t163.5 -15.5t163.5 15.5t93.5 61.5t41 128t9 217v420h-184v94q0 8 65.5 28.5t188.5 20.5h90v-975h174v-94q0 -6 -65.5 -27.5t-188.5 -21.5h-31l-8 205q-35 -117 -118 -169.5t-230 -52.5 t-237.5 30t-141.5 97.5t-68.5 177t-17.5 267.5v420h-176zM352 1415q0 33 3 52.5t14.5 30.5t33 15.5t58.5 4.5t58.5 -4.5t32.5 -15.5t14 -30.5t3 -52.5t-3 -52.5t-14 -30.5t-32.5 -14t-58.5 -3t-58.5 3t-33 14t-14.5 30.5t-3 52.5zM704 1415q0 33 3.5 52.5t14.5 30.5 t32.5 15.5t58.5 4.5t58.5 -4.5t32.5 -15.5t14.5 -30.5t3.5 -52.5t-3.5 -52.5t-14.5 -30.5t-32.5 -14t-58.5 -3t-58.5 3t-32.5 14t-14.5 30.5t-3.5 52.5z" />
<glyph unicode="&#xfd;" horiz-adv-x="1163" d="M-18 1010v94h448v-94q0 -8 -38 -25.5t-103 -21.5l278 -830h33l279 830q-66 4 -104 21t-38 26v94h449v-94q0 -8 -42 -25.5t-101 -21.5l-422 -1201q-10 -27 -24.5 -59.5t-42 -62t-74 -50t-117.5 -20.5q-137 0 -190.5 68.5t-53.5 185.5v22h102q12 -80 37 -108.5t92 -28.5 q35 0 57.5 6t38 20.5t25.5 37t23 53.5l63 174h-98l-334 963q-59 4 -101 21.5t-42 25.5zM499 1272l105 358h178l-153 -358h-130z" />
<glyph unicode="&#xfe;" horiz-adv-x="1333" d="M20 -311q0 8 51.5 27.5t125.5 19.5v1632h-177v94q0 6 67 27.5t189 21.5h78v-507q49 68 130 98.5t210 30.5q160 0 259.5 -32t153.5 -100.5t73.5 -179t19.5 -266.5q0 -158 -19.5 -267.5t-73.5 -178t-153.5 -100.5t-259.5 -32q-129 0 -210 31t-130 96v-368q76 0 126 -19.5 t50 -27.5v-95h-510v95zM348 555q0 -137 10.5 -221t45 -130t104.5 -61.5t186 -15.5q119 0 187.5 15.5t103.5 61.5t45 130t10 221q0 135 -10 219t-45 130t-103.5 62.5t-187.5 16.5q-117 0 -186.5 -16.5t-104 -62.5t-45 -130t-10.5 -219z" />
<glyph unicode="&#xff;" horiz-adv-x="1183" d="M-10 1010v94h448v-94q0 -8 -38 -25.5t-103 -21.5l278 -830h33l279 830q-66 4 -104 21t-38 26v94h449v-94q0 -8 -42 -25.5t-101 -21.5l-422 -1201q-10 -27 -24.5 -59.5t-42 -62t-74 -50t-117.5 -20.5q-137 0 -190.5 68.5t-53.5 185.5v22h102q12 -80 37 -108.5t92 -28.5 q35 0 57.5 6t38 20.5t25.5 37t23 53.5l63 174h-98l-334 963q-59 4 -101 21.5t-42 25.5zM309 1415q0 33 3 52.5t14.5 30.5t33 15.5t58.5 4.5t58.5 -4.5t32.5 -15.5t14 -30.5t3 -52.5t-3 -52.5t-14 -30.5t-32.5 -14t-58.5 -3t-58.5 3t-33 14t-14.5 30.5t-3 52.5zM661 1415 q0 33 3.5 52.5t14.5 30.5t32.5 15.5t58.5 4.5t58.5 -4.5t32.5 -15.5t14.5 -30.5t3.5 -52.5t-3.5 -52.5t-14.5 -30.5t-32.5 -14t-58.5 -3t-58.5 3t-32.5 14t-14.5 30.5t-3.5 52.5z" />
<glyph unicode="&#x131;" horiz-adv-x="612" d="M61 0v94q0 8 51.5 27.5t125.5 19.5v828h-177v94q0 8 67 28.5t189 20.5h78v-971q76 0 126 -19.5t50 -27.5v-94h-510z" />
<glyph unicode="&#x152;" horiz-adv-x="2428" d="M102 735q0 207 25 351.5t95.5 234.5t198.5 131t335 41q180 0 299 -29.5t192 -95.5v90h1016v-450h-96q-4 0 -14.5 17t-19.5 54t-16.5 93.5t-7.5 134.5h-704v-480h330q0 84 19.5 134.5t27.5 50.5h92v-523h-92q-8 0 -27.5 51.5t-19.5 137.5h-330v-528h741q2 180 25.5 255.5 t34.5 75.5h100v-481h-1059v100q-74 -66 -192.5 -94.5t-298.5 -28.5q-207 0 -335 41t-198.5 131.5t-95.5 234.5t-25 351zM276 735q0 -188 14.5 -306t63.5 -184.5t144.5 -90t257.5 -23.5t257 23.5t145 90t64.5 184.5t14.5 306t-14.5 306t-64.5 183.5t-145 89t-257 23.5 t-257.5 -23.5t-144.5 -89t-63.5 -183.5t-14.5 -306z" />
<glyph unicode="&#x153;" horiz-adv-x="2129" d="M133 555q0 156 19.5 266.5t75 179t155.5 100.5t262 32q100 0 173 -12.5t125 -37t85 -63.5t51 -92q37 106 132.5 155.5t289.5 49.5q150 0 246 -32t152.5 -100.5t78 -179t21.5 -266.5v-33h-844q0 -127 12.5 -203.5t51 -119.5t109.5 -57.5t188 -14.5q113 0 179 14.5t103 40 t51.5 60t22.5 77.5h102q0 -53 -9 -113.5t-53 -110.5t-137.5 -84t-258.5 -34q-201 0 -300.5 48.5t-136.5 156.5q-18 -55 -51 -94t-85 -63.5t-125 -36t-173 -11.5q-162 0 -262 32t-155.5 100.5t-75 178t-19.5 267.5zM291 555q0 -137 10 -222t46 -131t106.5 -61.5t191.5 -15.5 t191.5 15.5t106.5 61.5t46 131t10 222t-10 221t-46 130t-106.5 62.5t-191.5 16.5t-191.5 -16.5t-106.5 -62.5t-46 -130t-10 -221zM1159 657h684q-4 102 -21.5 167t-56.5 101t-102.5 49t-161.5 13q-104 0 -168.5 -13t-101.5 -49t-52.5 -101t-19.5 -167z" />
<glyph unicode="&#x178;" horiz-adv-x="1468" d="M-10 1364v94h534v-94q0 -8 -42 -24.5t-109 -20.5l364 -635l363 633q-72 4 -114 21.5t-42 25.5v94h535v-94q0 -8 -51.5 -27.5t-133.5 -19.5l-477 -813v-363q113 0 168 -19.5t55 -27.5v-94h-614v94q0 8 55.5 27.5t167.5 19.5v371l-477 805q-82 0 -132 19.5t-50 27.5z M448 1769q0 33 3 52.5t14.5 30.5t33 15.5t58.5 4.5t58.5 -4.5t32.5 -15.5t14 -30.5t3 -52.5t-3 -52.5t-14 -30.5t-32.5 -14t-58.5 -3t-58.5 3t-33 14t-14.5 30.5t-3 52.5zM800 1769q0 33 3.5 52.5t14.5 30.5t32.5 15.5t58.5 4.5t58.5 -4.5t32.5 -15.5t14.5 -30.5t3.5 -52.5 t-3.5 -52.5t-14.5 -30.5t-32.5 -14t-58.5 -3t-58.5 3t-32.5 14t-14.5 30.5t-3.5 52.5z" />
<glyph unicode="&#x2c6;" horiz-adv-x="1269" d="M393 1272l131 358h221l132 -358h-127l-115 239l-115 -239h-127z" />
<glyph unicode="&#x2da;" horiz-adv-x="1269" d="M416 1440q0 55 8 95t31.5 64.5t66.5 36t113 11.5t113 -11.5t66.5 -36t31.5 -64.5t8 -95t-8 -94t-31.5 -62.5t-66.5 -35t-113 -11.5t-113 11.5t-66.5 35t-31.5 62.5t-8 94zM551 1440q0 -49 14.5 -62.5t69.5 -13.5q53 0 66.5 13.5t13.5 62.5q0 51 -13.5 64.5t-66.5 13.5 q-55 0 -69.5 -13.5t-14.5 -64.5z" />
<glyph unicode="&#x2dc;" horiz-adv-x="1269" d="M276 1321q10 66 32 111t52.5 71.5t67.5 37.5t76 11q41 0 76.5 -12t68.5 -26.5t63.5 -26.5t59.5 -12q72 0 86 75h135q-18 -100 -75.5 -165.5t-143.5 -65.5q-41 0 -82 12t-77.5 26.5t-70.5 27t-61 12.5q-25 0 -48 -20.5t-34 -55.5h-125z" />
<glyph unicode="&#x2013;" horiz-adv-x="882" d="M41 586v137h801v-137h-801z" />
<glyph unicode="&#x2014;" horiz-adv-x="1021" d="M41 586v137h940v-137h-940z" />
<glyph unicode="&#x2018;" horiz-adv-x="534" d="M143 1141q0 31 4.5 86t26 108.5t67.5 92t132 38.5v-90q-6 0 -22.5 -5t-32 -19.5t-27.5 -38t-12 -60.5q63 0 87.5 -21.5t24.5 -90.5q0 -66 -22.5 -88.5t-100.5 -22.5q-76 0 -100.5 22.5t-24.5 88.5z" />
<glyph unicode="&#x2019;" horiz-adv-x="534" d="M143 1348q0 66 22.5 88t100.5 22q76 0 100.5 -22.5t24.5 -87.5q0 -31 -4 -86.5t-25.5 -108.5t-67.5 -92t-132 -39v90q6 0 22.5 5t31.5 19.5t27.5 38t12.5 60.5q-63 0 -88 21.5t-25 91.5z" />
<glyph unicode="&#x201a;" horiz-adv-x="534" d="M143 111q0 66 22.5 88t100.5 22q76 0 100.5 -22.5t24.5 -87.5q0 -31 -4 -86.5t-25.5 -108.5t-67.5 -92t-132 -39v90q6 0 22.5 5t31.5 19.5t27.5 38t12.5 60.5q-63 0 -88 21.5t-25 91.5z" />
<glyph unicode="&#x201c;" horiz-adv-x="854" d="M143 1141q0 31 4.5 86t26 108.5t67.5 92t132 38.5v-90q-6 0 -22.5 -5t-32 -19.5t-27.5 -38t-12 -60.5q63 0 87.5 -21.5t24.5 -90.5q0 -66 -22.5 -88.5t-100.5 -22.5q-76 0 -100.5 22.5t-24.5 88.5zM463 1141q0 31 4 86t25.5 108.5t67.5 92t132 38.5v-90q-6 0 -22.5 -5 t-31.5 -19.5t-27.5 -38t-12.5 -60.5q63 0 88 -21.5t25 -90.5q0 -66 -22.5 -88.5t-100.5 -22.5q-76 0 -100.5 22.5t-24.5 88.5z" />
<glyph unicode="&#x201d;" horiz-adv-x="854" d="M143 1348q0 66 22.5 88t100.5 22q76 0 100.5 -22.5t24.5 -87.5q0 -31 -4 -86.5t-25.5 -108.5t-67.5 -92t-132 -39v90q6 0 22.5 5t31.5 19.5t27.5 38t12.5 60.5q-63 0 -88 21.5t-25 91.5zM463 1348q0 66 22.5 88t100.5 22q76 0 100.5 -22.5t24.5 -87.5q0 -31 -4.5 -86.5 t-26 -108.5t-67.5 -92t-132 -39v90q6 0 22.5 5t32 19.5t27.5 38t12 60.5q-63 0 -87.5 21.5t-24.5 91.5z" />
<glyph unicode="&#x201e;" horiz-adv-x="854" d="M143 111q0 66 22.5 88t100.5 22q76 0 100.5 -22.5t24.5 -87.5q0 -31 -4 -86.5t-25.5 -108.5t-67.5 -92t-132 -39v90q6 0 22.5 5t31.5 19.5t27.5 38t12.5 60.5q-63 0 -88 21.5t-25 91.5zM463 111q0 66 22.5 88t100.5 22q76 0 100.5 -22.5t24.5 -87.5q0 -31 -4.5 -86.5 t-26 -108.5t-67.5 -92t-132 -39v90q6 0 22.5 5t32 19.5t27.5 38t12 60.5q-63 0 -87.5 21.5t-24.5 91.5z" />
<glyph unicode="&#x2022;" horiz-adv-x="1069" d="M205 680q0 90 13 149.5t49 95.5t100.5 50t167.5 14q102 0 166.5 -14t100.5 -50t49 -95.5t13 -149.5q0 -92 -13 -152.5t-49 -97.5t-100.5 -51t-166.5 -14t-167 14t-101 51t-49 97.5t-13 152.5z" />
<glyph unicode="&#x2026;" horiz-adv-x="1634" d="M143 100q0 72 25 96.5t104 24.5q80 0 104.5 -24.5t24.5 -96.5t-24.5 -97.5t-104.5 -25.5t-104.5 25.5t-24.5 97.5zM688 100q0 72 24.5 96.5t104.5 24.5t104.5 -24.5t24.5 -96.5t-24.5 -97.5t-104.5 -25.5t-104.5 25.5t-24.5 97.5zM1233 100q0 72 24.5 96.5t104.5 24.5 t104.5 -24.5t24.5 -96.5t-24.5 -97.5t-104.5 -25.5t-104.5 25.5t-24.5 97.5z" />
<glyph unicode="&#x2039;" horiz-adv-x="528" d="M41 537v92l426 377v-156l-254 -268l254 -265v-157z" />
<glyph unicode="&#x203a;" horiz-adv-x="528" d="M61 160v157l254 265l-254 268v156l426 -377v-92z" />
<glyph unicode="&#x2044;" horiz-adv-x="878" d="M20 0l711 1411h127l-717 -1411h-121z" />
<glyph unicode="&#x20ac;" d="M104 518v146h146v106h-146v145h152q10 145 42 248t95.5 167.5t163.5 94t246 29.5q131 0 219 -28.5t141 -96.5q8 43 21.5 67.5t17.5 24.5h101v-469h-123q-8 104 -29 171t-62.5 105t-111.5 52t-174 14q-109 0 -179.5 -16t-113.5 -58t-62.5 -116t-25.5 -189h459v-145h-463 v-106h463v-146h-459q6 -117 24.5 -190.5t61.5 -116.5t113.5 -58.5t181.5 -15.5q121 0 194.5 21.5t115.5 58.5t58.5 83t22.5 95h115v-10q0 -4 1 -12t1 -19q0 -80 -24.5 -148.5t-83 -118.5t-156 -78.5t-244.5 -28.5q-152 0 -253 29.5t-163.5 94t-92.5 167t-38 247.5h-152z" />
<glyph unicode="&#x2122;" horiz-adv-x="1728" d="M113 1188v270h602v-272l-60 2q-6 0 -22.5 40t-18.5 138h-147v-545q53 -2 80.5 -14t27.5 -19v-55h-321v55q0 6 26.5 18.5t79.5 14.5v545h-147q-2 -90 -17.5 -132t-23.5 -46h-59zM780 733v55q0 6 24.5 17.5t63.5 15.5v549q-41 2 -64.5 15.5t-23.5 17.5v55h275l157 -561 l154 561h281v-55q0 -4 -26 -16.5t-65 -16.5v-549q41 -2 66 -14t25 -19v-55h-285v55q0 6 24.5 17.5t63.5 15.5v553l-186 -641h-105l-186 637v-549q41 -2 64.5 -14t23.5 -19v-55h-281z" />
<glyph unicode="&#xe000;" horiz-adv-x="1105" d="M0 1105h1105v-1105h-1105v1105z" />
<glyph unicode="&#xfb01;" horiz-adv-x="1302" d="M61 0v94q0 8 51.5 27.5t125.5 19.5v832h-177v90q0 6 45.5 22.5t131.5 24.5v64q0 133 35.5 205.5t88 106.5t113 40t109.5 6v-102q-43 -6 -78 -19.5t-59.5 -41.5t-38 -75t-13.5 -120v-70h254v-131h-254v-832q76 0 126 -19.5t50 -27.5v-94h-510zM751 0v94q0 8 51.5 27.5 t125.5 19.5v828h-177v94q0 8 67 28.5t189 20.5h78v-971q76 0 126 -19.5t50 -27.5v-94h-510zM893 1380q0 33 3 52.5t14 31t32.5 15.5t58.5 4t58.5 -4t33 -15.5t14.5 -31t3 -52.5t-3 -52t-14.5 -30.5t-33 -14.5t-58.5 -3t-58.5 3t-32.5 14.5t-14 30.5t-3 52z" />
<glyph unicode="&#xfb02;" horiz-adv-x="1292" d="M61 0v94q0 8 51.5 27.5t125.5 19.5v832h-177v90q0 6 45.5 22.5t131.5 24.5v64q0 133 35.5 205.5t88 106.5t113 40t109.5 6v-102q-43 -6 -78 -19.5t-59.5 -41.5t-38 -75t-13.5 -120v-70h254v-131h-254v-832q76 0 126 -19.5t50 -27.5v-94h-510zM741 0v94q0 8 51.5 27.5 t124.5 19.5v1227h-176v94q0 6 66.5 27.5t189.5 21.5h78v-1370q76 0 126 -19.5t50 -27.5v-94h-510z" />
<glyph unicode="&#xfb03;" horiz-adv-x="1992" d="M1441 0v94q0 8 51.5 27.5t125.5 19.5v828h-177v94q0 8 67 28.5t189 20.5h78v-971q76 0 126 -19.5t50 -27.5v-94h-510zM1583 1380q0 33 3 52.5t14 31t32.5 15.5t58.5 4t58.5 -4t33 -15.5t14.5 -31t3 -52.5t-3 -52t-14.5 -30.5t-33 -14.5t-58.5 -3t-58.5 3t-32.5 14.5 t-14 30.5t-3 52zM751 0v94q0 8 51.5 27.5t125.5 19.5v832h-177v90q0 6 45.5 22.5t131.5 24.5v64q0 133 35.5 205.5t88 106.5t113 40t109.5 6v-102q-43 -6 -78 -19.5t-59.5 -41.5t-38 -75t-13.5 -120v-70h254v-131h-254v-832q76 0 126 -19.5t50 -27.5v-94h-510zM61 0v94 q0 8 51.5 27.5t125.5 19.5v832h-177v90q0 6 45.5 22.5t131.5 24.5v64q0 133 35.5 205.5t88 106.5t113 40t109.5 6v-102q-43 -6 -78 -19.5t-59.5 -41.5t-38 -75t-13.5 -120v-70h254v-131h-254v-832q76 0 126 -19.5t50 -27.5v-94h-510z" />
<glyph unicode="&#xfb04;" horiz-adv-x="1982" d="M1431 0v94q0 8 51.5 27.5t124.5 19.5v1227h-176v94q0 6 66.5 27.5t189.5 21.5h78v-1370q76 0 126 -19.5t50 -27.5v-94h-510zM751 0v94q0 8 51.5 27.5t125.5 19.5v832h-177v90q0 6 45.5 22.5t131.5 24.5v64q0 133 35.5 205.5t88 106.5t113 40t109.5 6v-102 q-43 -6 -78 -19.5t-59.5 -41.5t-38 -75t-13.5 -120v-70h254v-131h-254v-832q76 0 126 -19.5t50 -27.5v-94h-510zM61 0v94q0 8 51.5 27.5t125.5 19.5v832h-177v90q0 6 45.5 22.5t131.5 24.5v64q0 133 35.5 205.5t88 106.5t113 40t109.5 6v-102q-43 -6 -78 -19.5t-59.5 -41.5 t-38 -75t-13.5 -120v-70h254v-131h-254v-832q76 0 126 -19.5t50 -27.5v-94h-510z" />
</font>
</defs>
</svg>
